<svg width="51" height="50" viewBox="0 0 51 50" fill="none" xmlns="http://www.w3.org/2000/svg">
<g clipPath="url(#clip0_1058_9858)">
<path d="M25.8672 21.8753L29.3457 0.463185C29.4258 0.0295915 28.8379 -0.184276 28.6211 0.20049L15.7109 25.7815L24.3047 27.344L20.8203 49.5394C20.7422 49.9759 21.3359 50.1839 21.5479 49.7952L34.4609 23.4378L25.8672 21.8753Z" fill="white"/>
<path d="M7.11719 24.2178C7.11719 14.7441 14.4863 6.95996 23.7939 6.2959L25 3.90625C13.8389 3.95313 4.77344 13.0459 4.77344 24.2178C4.77344 33.7061 11.3135 41.6943 20.1211 43.916L20.4863 41.5898C12.7998 39.5527 7.11719 32.5371 7.11719 24.2188V24.2178Z" fill="#03548A"/>
<path d="M30.2617 4.5791L29.8838 6.90527C37.4707 9.00879 43.0557 15.9756 43.0557 24.2227C43.0557 33.4609 36.0478 41.0918 27.0693 42.0811L25.875 44.5176C36.7109 44.1016 45.3984 35.1582 45.3984 24.2217C45.3984 14.8086 38.9629 6.87207 30.2607 4.57812L30.2617 4.5791Z" fill="#03548A"/>
<path d="M15.4316 27.3213C14.9463 27.2334 14.5322 26.9209 14.3125 26.4805C14.0928 26.0391 14.0947 25.5205 14.3164 25.0801L22.96 7.95312C14.9141 8.99902 8.67969 15.8955 8.67969 24.2217C8.67969 31.7607 13.791 38.127 20.7305 40.04L22.5244 28.6113L15.4316 27.3213Z" fill="#03548A"/>
<path d="M27.8994 40.3828C35.6104 39.0449 41.4922 32.3066 41.4922 24.2188C41.4922 16.748 36.4736 10.4287 29.6309 8.45312L27.6562 20.6113L34.7412 21.8994C35.2227 21.9873 35.6357 22.2949 35.8564 22.7324C36.0771 23.1689 36.0801 23.6846 35.8652 24.124L27.9004 40.3818L27.8994 40.3828Z" fill="#03548A"/>
</g>
<defs>
<clipPath id="clip0_1058_9858">
<rect width="50" height="50" fill="white" transform="translate(0.0859375)"/>
</clipPath>
</defs>
</svg>
