<svg width="51" height="50" viewBox="0 0 51 50" fill="none" xmlns="http://www.w3.org/2000/svg">
<rect x="20" y="17.5" width="16" height="14" fill="white"/>
<path d="M23.751 6.09863C24.8725 4.94256 26.7924 4.90643 27.9639 5.99023L28.0752 6.09863L28.0771 6.09961C29.8521 7.91443 31.8542 9.39608 34.0664 10.5059L34.5117 10.7227C36.3698 11.6017 38.342 12.219 40.375 12.5391L40.7832 12.5996C42.1277 12.7847 43.1938 13.8217 43.4404 15.1543L43.4785 15.4238V15.4258C43.9056 19.5745 44.0961 29.8328 37.2109 37.666L36.8779 38.0371C34.335 40.8094 31.2182 42.9025 27.6055 44.2646L26.8799 44.5254C26.5532 44.6343 26.2314 44.6875 25.9131 44.6875C25.5948 44.6875 25.273 44.6343 24.9463 44.5254H24.9453C21.0237 43.1764 17.6595 40.993 14.9482 38.0371H14.9492C8.1957 30.6521 7.92192 20.9267 8.27148 16.2852L8.34863 15.4268V15.4238C8.48402 14.0545 9.47418 12.9433 10.7793 12.6475L11.0439 12.5996C13.085 12.3195 15.0684 11.7395 16.9414 10.8955L17.3145 10.7227C19.5547 9.66255 21.5863 8.22829 23.3916 6.45801L23.751 6.09863ZM33.4023 19.1641C32.5467 18.516 31.358 18.6491 30.6494 19.4121L30.5146 19.5732L30.5137 19.5752L25.6924 26.0088L23.2041 23.5215C22.4047 22.7222 21.0885 22.7221 20.2891 23.5215C19.5396 24.271 19.4926 25.475 20.1484 26.2812L20.2891 26.4365L24.4561 30.6035C24.8403 30.9877 25.3625 31.2079 25.9131 31.208H26.04L26.0625 31.2061C26.5828 31.1588 27.0659 30.9255 27.418 30.5547L27.5605 30.3867L27.5635 30.3838L33.8135 22.0498L33.8125 22.0488C34.4588 21.1933 34.3259 20.0068 33.5635 19.2988L33.4023 19.1641Z" fill="#03548A" stroke="white"/>
</svg>
