<svg xmlns="http://www.w3.org/2000/svg" width="24" height="24" viewBox="0 0 24 24" fill="none">
  <path d="M21.4111 13.6371L20.5527 12.9304C19.9646 12.4464 19.9657 11.5467 20.5527 11.0636L21.4111 10.3569C22.0219 9.85398 22.1782 8.9916 21.7826 8.30626L20.0876 5.37042C19.6919 4.68513 18.8667 4.38931 18.1259 4.66683L17.0847 5.05691C16.3715 5.32403 15.5929 4.8735 15.4679 4.12348L15.2851 3.0267C15.1551 2.24621 14.4863 1.67969 13.695 1.67969H10.305C9.5137 1.67969 8.84493 2.24621 8.71487 3.02674L8.53206 4.12348C8.40685 4.87483 7.62716 5.32359 6.91531 5.05695L5.87411 4.66683C5.13324 4.38931 4.30817 4.68517 3.91245 5.37042L2.21747 8.30622C1.82182 8.99147 1.97803 9.8539 2.58897 10.3569L3.44736 11.0635C4.03545 11.5476 4.03428 12.4472 3.44736 12.9304L2.58893 13.637C1.97803 14.14 1.82178 15.0024 2.21743 15.6877L3.91245 18.6235C4.30813 19.3088 5.13304 19.6046 5.87411 19.3271L6.91527 18.937C7.62857 18.6698 8.40705 19.1207 8.53202 19.8705L8.71483 20.9672C8.84493 21.7478 9.5137 22.3143 10.305 22.3143H13.695C14.4863 22.3143 15.155 21.7478 15.2851 20.9672L15.4679 19.8706C15.5931 19.1194 16.3727 18.6703 17.0847 18.9371L18.1259 19.3272C18.8669 19.6047 19.6919 19.3089 20.0876 18.6236L21.7826 15.6877C22.1782 15.0024 22.0219 14.14 21.4111 13.6371ZM18.6915 17.8175L17.6503 17.4274C15.9858 16.8039 14.1694 17.8559 13.8778 19.6055L13.695 20.7022H10.305L10.1222 19.6055C9.83007 17.8525 8.01096 16.8051 6.34975 17.4274L5.30855 17.8175L3.61357 14.8817L4.47196 14.175C5.8442 13.0454 5.84134 10.9463 4.47196 9.81896L3.61357 9.1123L5.30859 6.17646L6.34975 6.56654C8.01422 7.19002 9.83063 6.13813 10.1222 4.3885L10.305 3.29177H13.695L13.8778 4.3885C14.1699 6.14172 15.9891 7.18873 17.6502 6.56654L18.6914 6.17646L20.3868 9.1119C20.3868 9.1119 20.3867 9.11202 20.3864 9.11226L19.528 9.81891C18.1558 10.9485 18.1586 13.0476 19.528 14.175L20.3864 14.8816L18.6915 17.8175ZM12 8.02052C9.80738 8.02052 8.02353 9.80437 8.02353 11.997C8.02353 14.1896 9.80738 15.9735 12 15.9735C14.1926 15.9735 15.9765 14.1896 15.9765 11.997C15.9765 9.80437 14.1926 8.02052 12 8.02052ZM12 14.3614C10.6963 14.3614 9.63561 13.3007 9.63561 11.997C9.63561 10.6933 10.6963 9.6326 12 9.6326C13.3037 9.6326 14.3644 10.6933 14.3644 11.997C14.3644 13.3007 13.3037 14.3614 12 14.3614Z" fill="#8F91A0"/>
</svg>
