<svg width="48" height="49" viewBox="0 0 48 49" fill="none" xmlns="http://www.w3.org/2000/svg">
<rect width="47.9861" height="48" transform="translate(0.0117188 0.328125)" fill="white"/>
<mask id="mask0_1190_7786" style="mask-type:luminance" maskUnits="userSpaceOnUse" x="6" y="10" width="32" height="30">
<path d="M6.46484 10.625H37.8482V39.5229H6.46484V10.625Z" fill="white"/>
</mask>
<g mask="url(#mask0_1190_7786)">
<path fill-rule="evenodd" clip-rule="evenodd" d="M14.2464 16.1556C12.3364 16.9952 9.81991 17.9509 6.99956 18.1884C6.69611 18.2175 6.47136 18.4406 6.47665 18.7027C6.54968 21.3273 6.61779 24.6603 7.15658 26.1402C8.10364 28.896 10.6622 31.1421 13.7387 32.1076V37.3326C13.7387 38.5262 14.7958 39.5061 16.0827 39.5061H35.4994C36.7919 39.5061 37.8433 38.5311 37.8433 37.3326V17.7228C37.8433 17.3443 37.7022 17.0243 37.4143 16.7573L31.2299 11.0229C30.9476 10.7608 30.5968 10.625 30.1939 10.625H16.0827C14.7905 10.625 13.7387 11.6003 13.7387 12.8034V13.5215C13.7387 13.6717 13.8696 13.7931 14.0319 13.7931H15.4027C15.5647 13.7931 15.6956 13.6717 15.6956 13.5215V12.8034C15.6956 12.6044 15.8734 12.4445 16.0827 12.4445H29.8904V16.083C29.8904 17.1404 30.8167 17.9993 31.9571 17.9993H35.8868V37.3326C35.8868 37.5266 35.7086 37.6915 35.4994 37.6915H16.0827C15.8681 37.6915 15.6956 37.5316 15.6956 37.3326V32.1318C15.6956 32.03 15.6328 31.9378 15.5386 31.8894C18.3222 30.8074 20.4778 28.7164 21.3987 26.1451C22.0684 24.2723 22.0317 21.3323 22.079 18.7027C22.0839 18.4406 21.8592 18.2175 21.5557 18.1933C18.7252 17.9558 16.1928 16.9952 14.2778 16.1556H14.2464ZM23.6485 28.8132H33.7256C33.8459 28.8132 33.9401 28.7213 33.9401 28.6097V27.8284C33.9401 27.7168 33.8459 27.6246 33.7256 27.6246H23.6485C23.5282 27.6246 23.434 27.7168 23.434 27.8284V28.6097C23.434 28.7213 23.5282 28.8132 23.6485 28.8132ZM24.3863 22.8605H33.7256C33.8459 22.8605 33.9401 22.9528 33.9401 23.0644V23.8502C33.9401 23.9618 33.8459 24.0541 33.7256 24.0541H24.3863C24.2713 24.0541 24.1718 23.9618 24.1718 23.8502V23.0644C24.1718 22.9528 24.2713 22.8605 24.3863 22.8605ZM24.5327 21.6719H33.7256C33.8459 21.6719 33.9401 21.5796 33.9401 21.468V20.6871C33.9401 20.5755 33.8459 20.4832 33.7256 20.4832H24.5327C24.4177 20.4832 24.3235 20.5755 24.3235 20.6871V21.468C24.3235 21.5796 24.4177 21.6719 24.5327 21.6719ZM18.6412 32.384H33.7256C33.8459 32.384 33.9401 32.4763 33.9401 32.5879V33.3688C33.9401 33.4804 33.8459 33.5727 33.7256 33.5727H18.6412C18.5262 33.5727 18.4319 33.4804 18.4319 33.3688V32.5879C18.4319 32.4763 18.5262 32.384 18.6412 32.384ZM21.9061 30.0018H33.7256C33.8459 30.0018 33.9401 30.0941 33.9401 30.2057V30.9916C33.9401 31.1031 33.8459 31.1954 33.7256 31.1954H21.9061C21.7911 31.1954 21.6916 31.1031 21.6916 30.9916V30.2057C21.6916 30.0941 21.7911 30.0018 21.9061 30.0018ZM24.2868 26.4314H33.7256C33.8459 26.4314 33.9401 26.3391 33.9401 26.2275V25.4466C33.9401 25.335 33.8459 25.2427 33.7256 25.2427H24.2868C24.1665 25.2427 24.0723 25.335 24.0723 25.4466V26.2275C24.0723 26.3391 24.1665 26.4314 24.2868 26.4314ZM12.5669 23.0836L13.6812 24.1755L16.2658 21.8319C16.475 21.6378 16.8205 21.6428 17.0297 21.8368L17.7834 22.5549C17.9874 22.7489 17.9821 23.0644 17.7728 23.2584L14.4031 26.3149L14.0107 26.6738C13.9063 26.771 13.7754 26.8194 13.6236 26.8145C13.4719 26.8096 13.3463 26.7562 13.2419 26.6545L12.865 26.2808L10.997 24.4421C10.7931 24.2432 10.8086 23.9229 11.0231 23.7387L11.8029 23.0594C11.9127 22.9623 12.0436 22.9188 12.19 22.9237C12.3364 22.9286 12.4621 22.9819 12.5669 23.0836ZM14.2567 18.1933C12.8283 18.8192 10.9448 19.5374 8.84145 19.7117C8.61632 19.7314 8.44379 19.9012 8.44909 20.1001C8.5066 22.0553 8.55881 24.5438 8.96177 25.65C9.69959 27.8042 11.7556 29.5412 14.1938 30.2057C14.2828 30.2299 14.3668 30.225 14.4557 30.2008C16.8992 29.5072 18.8296 27.8042 19.5988 25.6549C20.096 24.2579 20.0695 22.0599 20.1062 20.0952C20.1062 19.9012 19.939 19.7363 19.7139 19.7166C17.6003 19.5374 15.7115 18.8241 14.2778 18.1933H14.2567Z" fill="#5681A0"/>
</g>
</svg>
