<svg width="40" height="41" viewBox="0 0 40 41" fill="none" xmlns="http://www.w3.org/2000/svg">
<rect width="39.9865" height="40" transform="translate(0.0117188 0.328125)" fill="white"/>
<mask id="mask0_1190_7825" style="mask-type:luminance" maskUnits="userSpaceOnUse" x="4" y="4" width="32" height="32">
<path d="M4.09766 4.03906H35.4474V35.3556H4.09766V4.03906Z" fill="white"/>
</mask>
<g mask="url(#mask0_1190_7825)">
<path d="M34.7559 9.31236H32.6124V7.37433C32.6124 7.03113 32.3046 6.75286 31.925 6.75286H29.7815V4.66872C29.7815 4.32514 29.4737 4.04688 29.0937 4.04688H13.2689C13.2672 4.04688 13.266 4.04688 13.2643 4.04688C13.2559 4.04725 13.2472 4.04725 13.2388 4.04763C13.2359 4.04763 13.2334 4.04763 13.2309 4.04801C13.2209 4.04839 13.2113 4.04914 13.2017 4.0499C13.1975 4.05027 13.1933 4.05065 13.1891 4.05103C13.1837 4.05178 13.1783 4.05254 13.1728 4.05292C13.1674 4.05367 13.162 4.05443 13.157 4.05518C13.1532 4.05556 13.1499 4.05631 13.1461 4.05707C13.1336 4.05896 13.1211 4.06122 13.109 4.06387C13.1077 4.06424 13.1069 4.06424 13.1056 4.06462C13.0985 4.06613 13.0914 4.06802 13.0843 4.06953C13.0831 4.06991 13.0814 4.07028 13.0797 4.07066C13.0576 4.07632 13.0363 4.08312 13.015 4.09067C13.0137 4.09105 13.0125 4.0918 13.0112 4.09218C13.0046 4.09445 12.9983 4.09709 12.9916 4.09973C12.9895 4.10049 12.9879 4.10124 12.9858 4.102C12.967 4.10955 12.9486 4.11823 12.9306 4.1273C12.9269 4.12918 12.9231 4.13107 12.9194 4.13296C12.9148 4.13522 12.9106 4.13787 12.9064 4.14013C12.9018 4.14278 12.8972 4.14542 12.8926 4.14806C12.8889 4.15033 12.8855 4.15221 12.8822 4.15448C12.8743 4.15901 12.8668 4.16392 12.8592 4.16883C12.8567 4.17072 12.8542 4.17223 12.8517 4.17411C12.8463 4.17789 12.8409 4.18166 12.8354 4.18582C12.8325 4.18771 12.83 4.18997 12.8271 4.19186C12.8217 4.19601 12.8162 4.20017 12.8112 4.20432C12.8091 4.20621 12.8066 4.20809 12.8045 4.20998C12.8037 4.21074 12.8029 4.21111 12.802 4.21187L4.31815 11.3089C4.30395 11.3206 4.291 11.3327 4.27806 11.3455C4.27597 11.347 4.2743 11.3493 4.27263 11.3508C4.26762 11.3561 4.26261 11.361 4.25801 11.3663C4.25593 11.3682 4.25384 11.3704 4.25175 11.3731C4.24716 11.378 4.24256 11.3833 4.23839 11.3886C4.23672 11.3905 4.23463 11.3927 4.23296 11.395C4.22711 11.4018 4.22168 11.409 4.21584 11.4161C4.21417 11.4188 4.21208 11.4218 4.21041 11.4244C4.20707 11.429 4.20373 11.4335 4.20038 11.4384C4.19788 11.4422 4.19496 11.446 4.19245 11.4501C4.19036 11.4535 4.18827 11.4569 4.18619 11.4603C4.18326 11.4648 4.18034 11.4697 4.17742 11.4743C4.17616 11.4765 4.17533 11.4784 4.17408 11.4807C4.16364 11.4988 4.15445 11.5173 4.1461 11.5366C4.14526 11.5377 4.14484 11.5388 4.14443 11.54C4.13273 11.5668 4.12355 11.5943 4.11603 11.623C4.11561 11.6249 4.1152 11.6268 4.11436 11.6287C4.11311 11.6347 4.11144 11.6408 4.11018 11.6468C4.10977 11.6498 4.10893 11.6529 4.10851 11.6559C4.10684 11.6638 4.10559 11.6721 4.10434 11.68C4.10308 11.6857 4.10267 11.6914 4.10183 11.697C4.10141 11.7008 4.101 11.7042 4.10058 11.708C4.10016 11.7144 4.09933 11.7212 4.09891 11.728C4.09891 11.7303 4.09849 11.7329 4.09849 11.7356C4.09807 11.7454 4.09766 11.7548 4.09766 11.7646V11.765V34.7212C4.09766 35.0644 4.40542 35.3426 4.78544 35.3426H20.3267C20.7063 35.3426 21.0145 35.0644 21.0145 34.7212C21.0145 34.378 20.7063 34.0993 20.3267 34.0993H5.4728V12.3868H13.2685C13.6485 12.3868 13.9563 12.1086 13.9563 11.7654V5.29019H28.4063V19.2135C28.4063 19.5571 28.7141 19.8354 29.0941 19.8354C29.4737 19.8354 29.7815 19.5571 29.7815 19.2135V7.99617H31.2376V20.5127C31.2376 20.8559 31.5454 21.1342 31.925 21.1342C32.3046 21.1342 32.6124 20.8559 32.6124 20.5127V10.5557H34.0685V23.2214C34.0685 23.5646 34.3763 23.8432 34.7559 23.8432C35.1359 23.8432 35.4437 23.5646 35.4437 23.2214V9.9342C35.4432 9.59062 35.1355 9.31236 34.7559 9.31236ZM12.5811 11.1435H6.54059L12.5811 6.09062V11.1435Z" fill="#1C759E"/>
</g>
<path d="M32.5443 22.5671C31.7842 21.88 30.8989 21.3404 29.9134 20.9632C28.8924 20.5728 27.8083 20.375 26.6912 20.375C25.5742 20.375 24.4901 20.5728 23.4695 20.9632C22.4835 21.3404 21.5986 21.88 20.8386 22.5671C20.0786 23.2539 19.4819 24.0543 19.0651 24.9454C18.6329 25.8685 18.4141 26.8487 18.4141 27.8587C18.4141 28.8686 18.6329 29.8488 19.0651 30.7719C19.4819 31.663 20.0786 32.4634 20.8386 33.1506C21.5982 33.8374 22.4835 34.3769 23.4695 34.7541C24.4901 35.1445 25.5742 35.3423 26.6912 35.3423C27.8083 35.3423 28.8924 35.1445 29.9134 34.7541C30.8989 34.3769 31.7842 33.8374 32.5443 33.1506C33.3039 32.4634 33.9006 31.663 34.3178 30.7719C34.7496 29.8488 34.9684 28.8686 34.9684 27.8587C34.9684 26.8487 34.7496 25.8685 34.3178 24.9454C33.9006 24.0543 33.3039 23.2539 32.5443 22.5671ZM33.0512 30.2875C32.7038 31.0306 32.206 31.6981 31.5717 32.2712C30.9378 32.8444 30.1994 33.2944 29.3776 33.6089C28.5274 33.934 27.6233 34.099 26.6912 34.099C25.7596 34.099 24.8555 33.934 24.0053 33.6089C23.1834 33.2944 22.4451 32.8444 21.8108 32.2712C21.1769 31.6981 20.6791 31.0306 20.3317 30.2875C19.9717 29.5184 19.7892 28.7014 19.7892 27.8587C19.7892 27.0159 19.9717 26.1989 20.3317 25.4298C20.6791 24.6868 21.1769 24.0196 21.8108 23.4461C22.4451 22.873 23.1834 22.4229 24.0053 22.1084C24.8555 21.7833 25.7596 21.6183 26.6912 21.6183C27.6233 21.6183 28.5274 21.7833 29.3776 22.1084C30.1994 22.4229 30.9378 22.873 31.5717 23.4461C32.206 24.0196 32.7038 24.6868 33.0512 25.4298C33.4112 26.1989 33.5933 27.0159 33.5933 27.8587C33.5933 28.7014 33.4108 29.5184 33.0512 30.2875Z" fill="#1C759E"/>
<path d="M16.6249 9.4855H24.8582C25.2378 9.4855 25.5455 9.20724 25.5455 8.86403C25.5455 8.52083 25.2378 8.24219 24.8582 8.24219H16.6249C16.2453 8.24219 15.9375 8.52083 15.9375 8.86403C15.9375 9.20724 16.2453 9.4855 16.6249 9.4855Z" fill="#1C759E"/>
<path d="M16.6249 13.0324H24.8582C25.2378 13.0324 25.5455 12.7541 25.5455 12.4109C25.5455 12.0677 25.2378 11.7891 24.8582 11.7891H16.6249C16.2453 11.7891 15.9375 12.0677 15.9375 12.4109C15.9375 12.7541 16.2453 13.0324 16.6249 13.0324Z" fill="#1C759E"/>
<path d="M8.47656 15.9574C8.47656 16.3006 8.78475 16.5789 9.16434 16.5789H24.8563C25.2359 16.5789 25.5437 16.3006 25.5437 15.9574C25.5437 15.6142 25.2359 15.3359 24.8563 15.3359H9.16434C8.78475 15.3359 8.47656 15.6142 8.47656 15.9574Z" fill="#1C759E"/>
<path d="M9.16434 20.1261H22.996C23.3755 20.1261 23.6833 19.8479 23.6833 19.5047C23.6833 19.1615 23.3755 18.8828 22.996 18.8828H9.16434C8.78475 18.8828 8.47656 19.1615 8.47656 19.5047C8.47656 19.8479 8.78475 20.1261 9.16434 20.1261Z" fill="#1C759E"/>
<path d="M18.8542 23.0512C18.8542 22.708 18.5465 22.4297 18.1669 22.4297H9.16434C8.78475 22.4297 8.47656 22.708 8.47656 23.0512C8.47656 23.3944 8.78475 23.6726 9.16434 23.6726H18.1669C18.5465 23.6726 18.8542 23.3944 18.8542 23.0512Z" fill="#1C759E"/>
<path d="M9.16434 27.2273H16.7195C17.0991 27.2273 17.4073 26.949 17.4073 26.6058C17.4073 26.2626 17.0991 25.9844 16.7195 25.9844H9.16434C8.78475 25.9844 8.47656 26.2626 8.47656 26.6058C8.47656 26.949 8.78475 27.2273 9.16434 27.2273Z" fill="#1C759E"/>
<path d="M9.16434 30.7667H17.0101C17.3901 30.7667 17.6979 30.4885 17.6979 30.1453C17.6979 29.8021 17.3901 29.5234 17.0101 29.5234H9.16434C8.78475 29.5234 8.47656 29.8021 8.47656 30.1453C8.47656 30.4885 8.78475 30.7667 9.16434 30.7667Z" fill="#1C759E"/>
<path d="M25.0003 29.4633L22.7832 27.4584L21.4219 28.6893L25.0003 31.9246L31.6693 25.8949L30.3083 24.6641L25.0003 29.4633Z" fill="#1C759E"/>
<mask id="mask1_1190_7825" style="mask-type:luminance" maskUnits="userSpaceOnUse" x="18" y="19" width="18" height="17">
<path d="M18.1289 19.6875H35.4474V35.3458H18.1289V19.6875Z" fill="white"/>
</mask>
<g mask="url(#mask1_1190_7825)">
<path d="M26.7864 35.3381C22.0158 35.3381 18.1484 31.8415 18.1484 27.5282C18.1484 23.2154 22.0158 19.7188 26.7864 19.7188C31.5566 19.7188 35.424 23.2154 35.424 27.5282C35.424 31.8415 31.5566 35.3381 26.7864 35.3381Z" fill="#1C759E" stroke="#3FB24F" stroke-width="0.00759978" stroke-miterlimit="10"/>
</g>
<path d="M24.4823 31.4181L21.747 28.2062C21.5048 27.9215 21.5633 27.5134 21.8781 27.2944L22.1742 27.0886C22.4887 26.8693 22.9401 26.9225 23.1823 27.2068L24.5332 28.7933C24.8147 29.1237 25.3626 29.1324 25.657 28.8111L30.4163 23.6105C30.6694 23.3341 31.1225 23.2953 31.4286 23.5244L31.7163 23.7396C32.0224 23.9684 32.065 24.3781 31.8119 24.6549L25.606 31.4362C25.3116 31.7576 24.7637 31.7489 24.4823 31.4181Z" fill="white"/>
</svg>
