<svg width="28" height="29" viewBox="0 0 28 29" fill="none" xmlns="http://www.w3.org/2000/svg">
<g id="Interface / Dummy_Square">
<path id="Vector" d="M7 11.557V18.0904C7 19.3972 7 20.0502 7.25432 20.5494C7.47802 20.9884 7.83472 21.3457 8.27376 21.5694C8.7724 21.8235 9.42549 21.8235 10.7297 21.8235H17.2703C18.5745 21.8235 19.2267 21.8235 19.7253 21.5694C20.1643 21.3457 20.5222 20.9884 20.7459 20.5494C21 20.0507 21 19.3986 21 18.0943V11.5532C21 10.249 21 9.59589 20.7459 9.09725C20.5222 8.6582 20.1643 8.30151 19.7253 8.0778C19.2262 7.82349 18.5737 7.82349 17.2669 7.82349H10.7336C9.42677 7.82349 8.77289 7.82349 8.27376 8.0778C7.83472 8.30151 7.47802 8.6582 7.25432 9.09725C7 9.59638 7 10.2503 7 11.557Z" stroke="black" stroke-width="2.33333" stroke-linecap="round" strokeLinejoin="round"/>
</g>
</svg>
