<svg width="9" height="18" viewBox="0 0 9 18" fill="none" xmlns="http://www.w3.org/2000/svg">
<path d="M2.5058 9.68344C2.44316 9.68344 1.06497 9.68344 0.438515 9.68344C0.104408 9.68344 0 9.55503 0 9.234C0 8.37793 0 7.50046 0 6.64439C0 6.30196 0.12529 6.19495 0.438515 6.19495H2.5058C2.5058 6.13075 2.5058 4.88945 2.5058 4.3116C2.5058 3.45553 2.65197 2.64226 3.06961 1.8932C3.50812 1.12274 4.13457 0.609097 4.92807 0.309473C5.45012 0.116857 5.97216 0.03125 6.53596 0.03125H8.58237C8.87471 0.03125 9 0.159661 9 0.459285V2.89908C9 3.19871 8.87471 3.32712 8.58237 3.32712C8.01856 3.32712 7.45476 3.32712 6.89095 3.34852C6.32715 3.34852 6.0348 3.62674 6.0348 4.22599C6.01392 4.86805 6.0348 5.4887 6.0348 6.15215H8.45708C8.79118 6.15215 8.91647 6.28056 8.91647 6.62299V9.2126C8.91647 9.55503 8.81207 9.66204 8.45708 9.66204C7.70534 9.66204 6.09745 9.66204 6.0348 9.66204V16.639C6.0348 17.0028 5.93039 17.1313 5.55452 17.1313C4.67749 17.1313 3.82135 17.1313 2.94432 17.1313C2.63109 17.1313 2.5058 17.0028 2.5058 16.6818C2.5058 14.4346 2.5058 9.74765 2.5058 9.68344Z" fill="white"/>
</svg>
