<svg width="25" height="25" viewBox="0 0 25 25" fill="none" xmlns="http://www.w3.org/2000/svg">
<path d="M6.8 20.0031C6.3 20.0031 5.875 19.8281 5.525 19.4781C5.175 19.1281 5 18.7031 5 18.2031V15.5031H6.5V18.2031C6.5 18.2698 6.53333 18.3365 6.6 18.4031C6.66667 18.4698 6.73333 18.5031 6.8 18.5031H18.2C18.2667 18.5031 18.3333 18.4698 18.4 18.4031C18.4667 18.3365 18.5 18.2698 18.5 18.2031V15.5031H20V18.2031C20 18.7031 19.825 19.1281 19.475 19.4781C19.125 19.8281 18.7 20.0031 18.2 20.0031H6.8ZM11.75 16.1281V7.72813L9.275 10.1781L8.225 9.10313L12.5 4.82812L16.775 9.10313L15.725 10.1781L13.25 7.72813V16.1281H11.75Z" fill="#212121"/>
</svg>
