<svg width="26" height="17" viewBox="0 0 26 17" fill="none" xmlns="http://www.w3.org/2000/svg">
<path d="M25.9989 6.87463H23.5227V4.39844H21.0465V6.87463H18.5703V9.35082H21.0465V11.827H23.5227V9.35082H25.9989V6.87463Z" fill="white"/>
<path d="M7.89286 9.89583H13.0232C12.497 12.1321 10.3923 13.8423 7.89286 13.8423C4.99881 13.8423 2.63095 11.4744 2.63095 8.58036C2.63095 5.68631 4.99881 3.31845 7.89286 3.31845C9.33988 3.31845 10.6554 3.84464 11.5762 4.89702L13.4179 3.05536C11.9708 1.60833 9.99762 0.6875 7.89286 0.6875C3.55179 0.6875 0 4.23929 0 8.58036C0 12.9214 3.55179 16.4732 7.89286 16.4732C12.2339 16.4732 15.7857 12.9214 15.7857 8.58036V7.26488H7.89286V9.89583Z" fill="white"/>
</svg>
