<svg width="24" height="24" viewBox="0 0 24 24" fill="none" xmlns="http://www.w3.org/2000/svg">
<path d="M24 11.9994C24 13.1169 23.095 14.0219 21.9775 14.0219H15L12 7.9544L15.2375 2.3469C15.7975 1.3794 17.0325 1.0494 18 1.6069C18.9675 2.1669 19.2975 3.4019 18.74 4.3694L15.5025 9.9769H21.9775C23.095 9.9769 24 10.8819 24 11.9994Z" fill="#1A73E8"/>
<path d="M17.9992 22.3931C17.0317 22.9506 15.7967 22.6206 15.2367 21.6531L11.9992 16.0456L8.76175 21.6531C8.20175 22.6206 6.96675 22.9506 5.99925 22.3931C5.03175 21.8331 4.70175 20.5981 5.25925 19.6306L8.49675 14.0231L11.9992 13.8906L15.5017 14.0231L18.7392 19.6306C19.2967 20.5981 18.9667 21.8331 17.9992 22.3931Z" fill="#EA4335"/>
<path d="M11.9992 7.9544L11.0867 10.4344L8.49675 9.9769L5.25925 4.3694C4.70175 3.4019 5.03175 2.1669 5.99925 1.6069C6.96675 1.0494 8.20175 1.3794 8.76175 2.3469L11.9992 7.9544Z" fill="#FBBC04"/>
<path d="M11.4775 9.97656L9.13 14.0216H2.0225C0.905 14.0216 0 13.1166 0 11.9991C0 10.8816 0.905 9.97656 2.0225 9.97656H11.4775Z" fill="#34A853"/>
<path d="M15.5011 14.0206H8.49609L11.9986 7.95312L15.5011 14.0206Z" fill="#185DB7"/>
</svg>
