<svg width="20" height="21" viewBox="0 0 20 21" fill="none" xmlns="http://www.w3.org/2000/svg">
<g clipPath="url(#clip0_1257_847)">
<path d="M19.8042 11.0554C19.8042 10.3756 19.7491 9.69219 19.6315 9.02344H10.1992V12.8743H15.6007C15.3765 14.1162 14.6563 15.2149 13.6018 15.913V18.4116H16.8243C18.7166 16.67 19.8042 14.0978 19.8042 11.0554Z" fill="#4285F4"/>
<path d="M10.2019 20.826C12.8989 20.826 15.1734 19.9404 16.8306 18.4119L13.6081 15.9132C12.7115 16.5232 11.5541 16.8686 10.2056 16.8686C7.59669 16.8686 5.38468 15.1085 4.591 12.7422H1.26562V15.318C2.96322 18.6948 6.42087 20.826 10.2019 20.826Z" fill="#34A853"/>
<path d="M4.58467 12.7483C4.16578 11.5063 4.16578 10.1615 4.58467 8.91954V6.34375H1.26297C-0.155365 9.1694 -0.155365 12.4984 1.26297 15.3241L4.58467 12.7483Z" fill="#FBBC04"/>
<path d="M10.2019 4.78618C11.6276 4.76413 13.0055 5.3006 14.038 6.28535L16.893 3.43031C15.0852 1.73271 12.6858 0.799403 10.2019 0.828799C6.42087 0.828799 2.96322 2.95998 1.26562 6.34047L4.58732 8.91625C5.37733 6.54623 7.59302 4.78618 10.2019 4.78618Z" fill="#EA4335"/>
</g>
<defs>
<clipPath id="clip0_1257_847">
<rect width="20" height="20" fill="white" transform="translate(0 0.828125)"/>
</clipPath>
</defs>
</svg>
