<svg width="24" height="25" viewBox="0 0 24 25" fill="none" xmlns="http://www.w3.org/2000/svg">
<g id="Edit / Hide">
<path id="Vector" d="M3.9994 4.82349L19.9994 20.8235M16.4994 17.5793C15.1468 18.308 13.618 18.8233 11.9994 18.8233C8.46875 18.8233 5.36575 16.3713 3.58632 14.6023C3.11661 14.1353 2.8818 13.9019 2.73231 13.4436C2.6257 13.1168 2.62567 12.5301 2.73231 12.2032C2.88185 11.745 3.11715 11.5109 3.58778 11.0432C4.48467 10.1517 5.71752 9.08708 7.17171 8.25024M19.4994 15.4569C19.8325 15.164 20.1375 14.8758 20.4112 14.6038L20.4141 14.6007C20.8827 14.1349 21.1177 13.9014 21.2669 13.4441C21.3736 13.1173 21.3733 12.5303 21.2667 12.2035C21.1173 11.7454 20.8822 11.5112 20.4128 11.0446C18.6334 9.27557 15.5301 6.82349 11.9994 6.82349C11.6619 6.82349 11.3283 6.84589 10.9994 6.88797M13.3223 14.3235C12.9697 14.6347 12.5066 14.8235 11.9994 14.8235C10.8948 14.8235 9.9994 13.9281 9.9994 12.8235C9.9994 12.284 10.213 11.7946 10.5603 11.4348" stroke="#979797" stroke-width="2" stroke-linecap="round" strokeLinejoin="round"/>
</g>
</svg>
