<svg width="18" height="19" viewBox="0 0 18 19" fill="none" xmlns="http://www.w3.org/2000/svg">
<path d="M18.0005 18.5759V12.0196C18.0005 8.79736 17.3097 6.33594 13.5663 6.33594C11.7614 6.33594 10.5581 7.32051 10.0679 8.26033H10.0234V6.62683H6.48047V18.5759H10.1793V12.6461C10.1793 11.0798 10.469 9.58054 12.3853 9.58054C14.2793 9.58054 14.3016 11.3483 14.3016 12.7356V18.5536H18.0005V18.5759Z" fill="white"/>
<path d="M0.71875 6.33594H4.31875V18.5759H0.71875V6.33594Z" fill="white"/>
<path d="M2.16 0.578125C0.9675 0.578125 0 1.54061 0 2.72693C0 3.91325 0.9675 4.89813 2.16 4.89813C3.3525 4.89813 4.32 3.91325 4.32 2.72693C4.32 1.54061 3.3525 0.578125 2.16 0.578125Z" fill="white"/>
</svg>
