<svg xmlns="http://www.w3.org/2000/svg" width="27" height="27" viewBox="0 0 27 27" fill="none">
  <path d="M8.69598 24.3385C8.21426 24.3385 7.80223 24.167 7.4599 23.824C7.11756 23.4809 6.94603 23.0696 6.94531 22.59V4.42146C6.94531 3.94046 7.11684 3.52879 7.4599 3.18646C7.80295 2.84412 8.21462 2.6726 8.6949 2.67188H18.1957C18.6767 2.67188 19.0884 2.8434 19.4307 3.18646C19.7731 3.52951 19.9446 3.94082 19.9453 4.42037V9.08737H18.862V4.42254C18.862 4.22754 18.7995 4.06757 18.6746 3.94263C18.5496 3.81768 18.39 3.75521 18.1957 3.75521H8.6949C8.50062 3.75521 8.34101 3.81768 8.21606 3.94263C8.09112 4.06757 8.02865 4.22754 8.02865 4.42254V22.589C8.02865 22.7832 8.09112 22.9428 8.21606 23.0678C8.34101 23.1927 8.50098 23.2552 8.69598 23.2552H18.1957C18.39 23.2552 18.5496 23.1927 18.6746 23.0678C18.7995 22.9428 18.862 22.7832 18.862 22.589V20.7549H19.9453V22.589C19.9453 23.07 19.7738 23.4816 19.4307 23.824C19.0877 24.1663 18.676 24.3378 18.1957 24.3385H8.69598ZM13.4886 7.33887C13.7248 7.33887 13.9227 7.25871 14.0823 7.09837C14.2412 6.93804 14.3206 6.73979 14.3206 6.50362C14.3206 6.26746 14.2405 6.06957 14.0801 5.90996C13.9198 5.75035 13.7216 5.6709 13.4854 5.67162C13.2492 5.67235 13.0517 5.75251 12.8928 5.91212C12.7339 6.07174 12.6545 6.26999 12.6545 6.50687C12.6545 6.74376 12.7339 6.94129 12.8928 7.09946C13.0517 7.25762 13.2503 7.33815 13.4886 7.33887Z" fill="#032A13"/>
  <path d="M20.3267 10.7673C20.9909 10.1026 22.0631 10.0676 22.7208 10.7253C23.3784 11.3829 23.3434 12.4551 22.6792 13.1193L21.1617 14.6368C21.135 14.6655 21.1028 14.6885 21.067 14.7044C21.0312 14.7204 20.9926 14.7289 20.9534 14.7296C20.9143 14.7303 20.8754 14.7231 20.839 14.7084C20.8027 14.6938 20.7697 14.6719 20.742 14.6442C20.7143 14.6165 20.6925 14.5836 20.6778 14.5472C20.6632 14.5109 20.656 14.472 20.6567 14.4328C20.6573 14.3937 20.6659 14.3551 20.6819 14.3193C20.6978 14.2835 20.7208 14.2513 20.7494 14.2246L22.2665 12.7071C22.7196 12.254 22.7219 11.5517 22.3082 11.1379C21.8948 10.7241 21.192 10.7264 20.7389 11.1795L19.2214 12.697C19.1662 12.7485 19.093 12.7766 19.0175 12.7752C18.9419 12.7739 18.8698 12.7433 18.8164 12.6899C18.7629 12.6364 18.7323 12.5643 18.731 12.4887C18.7296 12.4132 18.7577 12.3401 18.8092 12.2848L20.3267 10.7673ZM20.7771 12.669C20.8317 12.7237 20.8624 12.7978 20.8624 12.8751C20.8624 12.9524 20.8317 13.0265 20.7771 13.0812L18.4436 15.4146C18.3884 15.4662 18.3152 15.4942 18.2397 15.4929C18.1641 15.4915 18.092 15.4609 18.0386 15.4075C17.9851 15.3541 17.9545 15.282 17.9532 15.2064C17.9518 15.1308 17.9799 15.0577 18.0314 15.0024L20.3648 12.669C20.4195 12.6144 20.4936 12.5837 20.5709 12.5837C20.6482 12.5837 20.7224 12.6144 20.7771 12.669Z" fill="#032A13"/>
  <path d="M18.0614 13.8577C18.1162 13.803 18.147 13.7288 18.147 13.6514C18.1471 13.574 18.1164 13.4998 18.0618 13.445C18.0071 13.3903 17.9329 13.3594 17.8556 13.3594C17.7782 13.3593 17.7039 13.39 17.6492 13.4446L16.1359 14.954C15.4736 15.6143 15.4118 16.6247 16.0893 17.3333C16.7827 18.0578 17.8304 17.9469 18.4826 17.2967L19.9962 15.7874C20.0509 15.7327 20.0818 15.6585 20.0818 15.5811C20.0819 15.5038 20.0512 15.4295 19.9966 15.3748C19.9695 15.3476 19.9374 15.3261 19.902 15.3114C19.8666 15.2967 19.8286 15.2891 19.7903 15.2891C19.713 15.289 19.6387 15.3197 19.5839 15.3744L18.0711 16.8829C17.6087 17.3442 16.9402 17.3776 16.5116 16.9296C16.4855 16.9027 16.4607 16.8745 16.4373 16.8452C16.0722 16.3894 16.1223 15.7913 16.5482 15.3666L18.0614 13.8577Z" fill="#032A13"/>
</svg>
