<svg width="24" height="25" viewBox="0 0 24 25" fill="none" xmlns="http://www.w3.org/2000/svg">
<path d="M4 10.4971L10.1076 15.1093L10.1097 15.111C10.7878 15.6083 11.1271 15.8571 11.4988 15.9532C11.8272 16.0382 12.1725 16.0382 12.501 15.9532C12.8729 15.857 13.2132 15.6075 13.8926 15.1093L20 10.4971M19.8002 9.53651L14.2012 5.05364C13.506 4.49702 13.1581 4.21881 12.7715 4.10833C12.4304 4.01085 12.0692 4.00568 11.7255 4.09368C11.336 4.19341 10.9809 4.4618 10.2705 4.99895L4.26953 9.53674C3.8038 9.88891 3.57123 10.0651 3.40332 10.2877C3.2546 10.4848 3.14377 10.7077 3.07624 10.9452C3 11.2134 3 11.5054 3 12.0893V18.2972C3 19.4173 3 19.9776 3.21799 20.4054C3.40973 20.7817 3.71547 21.0875 4.0918 21.2792C4.5192 21.497 5.07899 21.497 6.19691 21.497H17.8031C18.921 21.497 19.48 21.497 19.9074 21.2792C20.2837 21.0875 20.5905 20.7815 20.7822 20.4052C21 19.9778 21 19.4185 21 18.3006V12.0235C21 11.4664 21 11.1861 20.9287 10.9272C20.8651 10.6963 20.7595 10.4787 20.619 10.2847C20.4604 10.0658 20.2409 9.88934 19.8002 9.53651Z" stroke="#0E00D8" stroke-width="2" stroke-linecap="round" strokeLinejoin="round"/>
</svg>
