<svg width="70" height="70" viewBox="0 0 70 70" fill="none" xmlns="http://www.w3.org/2000/svg">
<rect x="21" y="14" width="29" height="45" fill="white"/>
<path d="M16.75 5.46875H41.75C46.2239 5.46875 49.8438 9.08864 49.8438 13.5625V29.4688H42.3633L43.7598 28.0723C44.8613 26.9708 44.8613 25.1542 43.7598 24.0527C42.7271 23.0201 41.0663 22.9558 39.9551 23.8594L39.7402 24.0527L33.4824 30.3105C32.6994 31.1309 32.4236 32.3422 32.8838 33.416V33.415C33.3107 34.4847 34.3739 35.1562 35.5 35.1562H49.8438V38.8438H35.5C33.9426 38.8438 32.6562 40.1301 32.6562 41.6875C32.6562 43.2449 33.9426 44.5312 35.5 44.5312H49.8438V57.3125C49.8438 61.7864 46.2239 65.4062 41.75 65.4062H16.75C12.2761 65.4062 8.65625 61.7864 8.65625 57.3125V13.5625C8.65625 9.08864 12.2761 5.46875 16.75 5.46875ZM26.125 51.3438C24.5676 51.3438 23.2812 52.6301 23.2812 54.1875C23.2812 55.7449 24.5676 57.0312 26.125 57.0312H32.375C33.9324 57.0312 35.2188 55.7449 35.2188 54.1875C35.2188 52.6301 33.9324 51.3438 32.375 51.3438H26.125Z" fill="#03548A" stroke="white"/>
<path d="M60.5 34.6562C61.7812 34.6562 62.8438 33.5938 62.8438 32.3125C62.8438 31.0312 61.7812 29.9688 60.5 29.9688H50.3438V34.6562H60.5Z" fill="#03548A" stroke="white" strokeLinejoin="round"/>
<path d="M60.5 39.8438C61.1875 39.8438 61.8155 40.2299 62.1367 40.8506L62.1963 40.9785C62.4701 41.6176 62.3379 42.3727 61.8955 42.8896L61.8027 42.9902L55.5527 49.2402C55.1827 49.6103 54.7183 49.7812 54.25 49.7812C53.7817 49.7812 53.3173 49.6103 52.9473 49.2402C52.2807 48.5737 52.2391 47.4919 52.8223 46.7734L52.9473 46.6348L56.0508 43.5312H50.8438V39.8438H60.5Z" fill="#03548A" stroke="white"/>
</svg>
