<svg width="24" height="25" viewBox="0 0 24 25" fill="none" xmlns="http://www.w3.org/2000/svg">
<path d="M6.25 18.1074L5.46094 17.9365C4.78231 17.7898 4.24738 17.5772 3.80469 17.2705L3.62109 17.1328H3.62012C3.35527 16.9215 3.14594 16.7232 2.97852 16.5195L2.82422 16.3135C2.68551 16.1064 2.57944 15.8814 2.49902 15.6162L2.42676 15.3359C2.25537 14.548 2.25 13.4462 2.25 11.6152V11.4316C2.25 9.57148 2.25362 8.20237 2.42969 7.15137L2.42871 7.15039C2.60534 6.10133 2.95161 5.40278 3.62109 4.86719L3.62012 4.86621C4.2987 4.32412 5.19915 4.03924 6.54004 3.89453L6.53906 3.89355C7.87557 3.75056 9.6144 3.75 11.9531 3.75H12.0469C14.0933 3.75 15.6798 3.75101 16.9395 3.84766L17.46 3.89551C18.7173 4.03029 19.5867 4.28885 20.249 4.76758L20.3789 4.86719C21.0483 5.40271 21.3937 6.10132 21.5703 7.15137V7.15234C21.7464 8.20226 21.75 9.57136 21.75 11.4316V11.6152C21.75 13.2176 21.7459 14.2616 21.6299 15.0254L21.5732 15.3359C21.5088 15.6312 21.4208 15.8781 21.3027 16.0996L21.1748 16.3135L21.1738 16.3145C21.0339 16.523 20.8555 16.7199 20.626 16.9248L20.3789 17.1328C19.7851 17.6071 19.0222 17.8859 17.9424 18.0449L17.46 18.1055C16.1235 18.2484 14.3852 18.25 12.0469 18.25H12C10.8432 18.25 9.93572 18.6025 9.10156 19.0967L8.74805 19.3164L8.74121 19.3213C8.37681 19.5627 8.019 19.8144 7.66895 20.0762L7.36621 20.2959C7.00854 20.5549 6.64212 20.8131 6.25 21.0576V18.1074Z" fill="white" stroke="#0E00D8" stroke-width="2"/>
</svg>
