<svg width="55" height="54" viewBox="0 0 55 54" fill="none" xmlns="http://www.w3.org/2000/svg">
<path d="M25.4734 0.311612C21.3911 1.96602 11.9337 5.96171 7.27836 6.9191C6.24971 7.13065 5.51562 8.04251 5.51562 9.09265V22.559C5.51562 33.1189 10.2707 43.1175 18.4622 49.7819L20.9904 51.8387C24.5323 54.7203 29.6104 54.7203 33.1524 51.8387L35.6807 49.7819C43.8721 43.1175 48.6272 33.1185 48.6272 22.5586V9.09265C48.6272 8.04251 47.8931 7.13065 46.8645 6.9191C42.2092 5.96171 32.7517 1.96602 28.6696 0.311612C27.6443 -0.103871 26.4987 -0.103871 25.4734 0.311612Z" fill="#03548A"/>
<path d="M27.0687 44.9265C36.9701 44.9265 44.9968 36.8998 44.9968 26.9984C44.9968 17.097 36.9701 9.07031 27.0687 9.07031C17.1673 9.07031 9.14062 17.097 9.14062 26.9984C9.14062 36.8998 17.1673 44.9265 27.0687 44.9265Z" fill="white"/>
<path d="M42.9792 27.0013C42.9792 31.8 40.8544 36.1023 37.4944 39.0189C34.7028 41.4422 31.0585 41.4265 27.0716 41.4265C23.1249 41.4265 19.5138 41.4716 16.7334 39.0918C13.3245 36.1742 11.1641 31.84 11.1641 27.0013C11.1641 18.2158 18.2861 11.0938 27.0716 11.0938C35.8571 11.0938 42.9792 18.2158 42.9792 27.0013Z" fill="#03548A"/>
<path d="M27.1036 13.5469C22.9838 13.5469 19.832 16.6987 19.832 20.8185C19.832 23.0195 20.5978 24.9973 22.114 26.3628L34.9462 39.195C35.484 38.8323 37.0028 39.442 37.4911 39.0181C40.8512 36.1015 42.976 31.7993 42.976 27.0006C42.976 26.7095 42.9676 26.4204 42.9522 26.1331L32.6479 15.8289C31.2825 14.3126 29.3047 13.5469 27.1036 13.5469Z" fill="#03548A"/>
<path d="M27.069 28.2396C31.1888 28.2396 34.5286 24.8998 34.5286 20.7799C34.5286 16.6601 31.1888 13.3203 27.069 13.3203C22.9492 13.3203 19.6094 16.6601 19.6094 20.7799C19.6094 24.8998 22.9492 28.2396 27.069 28.2396Z" fill="url(#paint0_linear_1058_9868)"/>
<path d="M36.9691 33.3974C38.9889 34.6933 39.1894 37.5823 37.3593 39.1346C37.3383 39.1525 37.3172 39.1703 37.296 39.1881C34.5311 41.5115 30.9648 42.9093 27.0716 42.9093C23.1399 42.9093 19.5426 41.4832 16.7664 39.1195C16.7556 39.1103 16.7448 39.1011 16.734 39.0918C14.9144 37.536 15.1297 34.651 17.1487 33.3649C20.0046 31.5457 23.3959 30.4922 27.033 30.4922C30.6936 30.4922 34.1027 31.5583 36.9691 33.3974Z" fill="url(#paint1_linear_1058_9868)"/>
<defs>
<linearGradient id="paint0_linear_1058_9868" x1="5.52214" y1="-0.766921" x2="42.3214" y2="36.0323" gradientUnits="userSpaceOnUse">
<stop stopColor="#EBEFF0"/>
<stop offset="1" stopColor="#E3E5E4"/>
</linearGradient>
<linearGradient id="paint1_linear_1058_9868" x1="24.7038" y1="32.1782" x2="29.3072" y2="40.4457" gradientUnits="userSpaceOnUse">
<stop stopColor="#EBEFF0"/>
<stop offset="1" stopColor="#E3E5E4"/>
</linearGradient>
</defs>
</svg>
