<svg width="52" height="53" viewBox="0 0 52 53" fill="none" xmlns="http://www.w3.org/2000/svg">
<mask id="mask0_1255_2138" style="mask-type:luminance" maskUnits="userSpaceOnUse" x="7" y="3" width="39" height="47">
<path d="M7 3.63281H45.0674V49.4011H7V3.63281Z" fill="white"/>
</mask>
<g mask="url(#mask0_1255_2138)">
<path d="M42.5019 47.0819H9.55646V5.95202H32.3242V13.1215C32.3242 14.0529 33.1461 15.2995 34.1621 15.2995H42.5019V47.0819ZM44.4792 11.8264L36.1057 4.1366C35.7548 3.8138 35.2784 3.63281 34.7815 3.63281H8.90458C7.86938 3.63281 7.03125 4.40257 7.03125 5.35276V47.6811C7.03125 48.6313 7.86938 49.4011 8.90458 49.4011H43.1544C44.1896 49.4011 45.0272 48.6313 45.0272 47.6811V13.0432C45.0272 12.5863 44.8301 12.1492 44.4792 11.8264Z" fill="#2B77C1"/>
</g>
<path d="M12.6875 36.0642C12.6875 36.632 13.1892 37.0961 13.811 37.0961H24.1636V35.0312H13.811C13.1892 35.0312 12.6875 35.4931 12.6875 36.0642Z" fill="#337CA6"/>
<path d="M39.3537 36.0642C39.3537 35.4931 38.8514 35.0312 38.2301 35.0312H27.3242V37.0961H38.2301C38.8514 37.0961 39.3537 36.632 39.3537 36.0642Z" fill="#337CA6"/>
<path d="M12.6836 29.9376C12.6836 30.5065 13.1877 30.9694 13.8071 30.9694H38.2373C38.8567 30.9694 39.3602 30.5065 39.3602 29.9376C39.3602 29.3687 38.8567 28.9062 38.2373 28.9062H13.8071C13.1877 28.9062 12.6836 29.3687 12.6836 29.9376Z" fill="#337CA6"/>
<path d="M12.6875 42.197C12.6875 42.7648 13.1892 43.2283 13.811 43.2283H24.1636V41.1641H13.811C13.1892 41.1641 12.6875 41.6292 12.6875 42.197Z" fill="#337CA6"/>
<path d="M38.253 41.1641H27.3242V43.2283H38.253C38.8694 43.2283 39.3759 42.7648 39.3759 42.197C39.3759 41.6292 38.8694 41.1641 38.253 41.1641Z" fill="#337CA6"/>
<path d="M20.8676 15.5952C16.9089 15.6741 14.2022 18.7035 14.2587 21.8035C18.7726 21.8035 23.2654 21.8035 27.7601 21.8035C27.7877 18.4706 24.7963 15.519 20.8676 15.5952Z" fill="#337CA6"/>
<path d="M20.9614 14.5792C22.6954 14.5941 24.1181 13.3227 24.1331 11.7451C24.1488 10.1438 22.7573 8.85095 21.0119 8.84378C19.3056 8.83661 17.9021 10.1107 17.8907 11.6767C17.8787 13.2648 19.2533 14.5637 20.9614 14.5792Z" fill="#337CA6"/>
<path d="M29.3327 23.0312H12.6836V25.8846H29.3327V23.0312Z" fill="#337CA6"/>
</svg>
