<svg width="80" height="72" viewBox="0 0 80 72" fill="none" xmlns="http://www.w3.org/2000/svg">
<g clipPath="url(#clip0_1058_9818)">
<rect x="20" y="13" width="43" height="52" fill="white"/>
<path d="M40 4.0625C59.7358 4.0625 75.75 19.3119 75.75 38C75.75 56.6881 59.7358 71.9375 40 71.9375C20.2642 71.9375 4.25 56.6881 4.25 38C4.25 19.3119 20.2642 4.0625 40 4.0625ZM31.25 41.0625C24.7983 41.0625 19.5 46.06 19.5 52.25V55.8125C19.5 56.3082 19.5391 56.7984 19.6016 57.3359V57.3369C19.6381 57.7884 19.8569 58.1716 20.1553 58.4551L20.1709 58.4688C25.5894 63.2055 32.6322 65.8125 40 65.8125C47.3678 65.8125 54.4106 63.2055 59.8291 58.4688L59.8447 58.4551C60.124 58.1897 60.3386 57.8171 60.3818 57.3994L60.3828 57.4004C60.4603 56.8361 60.5 56.3262 60.5 55.8125V52.25C60.5 46.06 55.2017 41.0625 48.75 41.0625H31.25ZM40 16.125C33.5483 16.125 28.25 21.1225 28.25 27.3125C28.25 33.5025 33.5483 38.5 40 38.5C46.4517 38.5 51.75 33.5025 51.75 27.3125C51.75 21.1225 46.4517 16.125 40 16.125Z" fill="#03548A" stroke="white"/>
</g>
<defs>
<clipPath id="clip0_1058_9818">
<rect width="80" height="72" fill="white"/>
</clipPath>
</defs>
</svg>
