<svg width="100" height="75" viewBox="0 0 100 75" fill="none" xmlns="http://www.w3.org/2000/svg">
<mask id="mask0_1058_9832" style="mask-type:luminance" maskUnits="userSpaceOnUse" x="24" y="16" width="52" height="48">
<path d="M24.5703 16.8516H75.2269V63.7451H24.5703V16.8516Z" fill="white"/>
</mask>
<g mask="url(#mask0_1058_9832)">
<path d="M51.6709 17.4375C51.7484 17.404 51.8353 17.407 51.9082 17.4434L51.9756 17.4912L74.6279 38.8916C74.6838 38.9443 74.7168 39.0194 74.7168 39.0977C74.7168 39.1558 74.699 39.2125 74.666 39.2598L74.6279 39.3037L51.9756 60.7051C51.8937 60.7824 51.7734 60.803 51.6709 60.7588C51.5674 60.7141 51.5001 60.612 51.5 60.499V48.0332L50.9893 48.0439C46.7752 48.1292 42.7569 49.0737 39.0254 50.8574L38.2822 51.2256C31.8523 54.5267 28.1654 59.5073 26.3965 62.5264L26.0684 63.1025C26.0184 63.1929 25.9232 63.2479 25.8223 63.248C25.808 63.248 25.7919 63.2476 25.7764 63.2451H25.7773C25.6888 63.2307 25.6139 63.1755 25.5732 63.0996L25.5449 63.0176L25.4883 62.6855C25.3192 61.6106 24.9007 58.2906 25.3633 54.0986L25.4863 53.1162C25.8833 50.2844 26.6242 47.5979 27.6895 45.1211L27.9062 44.6289C29.2787 41.5977 31.1569 38.8783 33.4932 36.5352L33.9668 36.0713C39.6502 30.6344 46.2647 28.8125 51.0557 28.2725L51.5 28.2227V17.6973C51.5 17.6123 51.5378 17.5334 51.6006 17.4805L51.6709 17.4375Z" fill="#03548A" stroke="white"/>
</g>
</svg>
