<svg width="124" height="21" viewBox="0 0 124 21" fill="none" xmlns="http://www.w3.org/2000/svg">
<g id="Social Media">
<g id="facebook">
<path id="Icon_11_" d="M2.5058 12.6522C2.44316 12.6522 1.06497 12.6522 0.438515 12.6522C0.104408 12.6522 0 12.5238 0 12.2028C0 11.3467 0 10.4692 0 9.61314C0 9.27071 0.12529 9.1637 0.438515 9.1637H2.5058C2.5058 9.0995 2.5058 7.8582 2.5058 7.28035C2.5058 6.42428 2.65197 5.61101 3.06961 4.86195C3.50812 4.09149 4.13457 3.57785 4.92807 3.27822C5.45012 3.08561 5.97216 3 6.53596 3H8.58237C8.87471 3 9 3.12841 9 3.42804V5.86783C9 6.16746 8.87471 6.29587 8.58237 6.29587C8.01856 6.29587 7.45476 6.29587 6.89095 6.31727C6.32715 6.31727 6.0348 6.59549 6.0348 7.19474C6.01392 7.8368 6.0348 8.45745 6.0348 9.1209H8.45708C8.79118 9.1209 8.91647 9.24931 8.91647 9.59174V12.1814C8.91647 12.5238 8.81207 12.6308 8.45708 12.6308C7.70534 12.6308 6.09745 12.6308 6.0348 12.6308V19.6078C6.0348 19.9716 5.93039 20.1 5.55452 20.1C4.67749 20.1 3.82135 20.1 2.94432 20.1C2.63109 20.1 2.5058 19.9716 2.5058 19.6506C2.5058 17.4034 2.5058 12.7164 2.5058 12.6522Z" fill="black"/>
</g>
<g id="linkedin (3)">
<path id="Path" d="M81 17.9998V11.4434C81 8.22119 80.3092 5.75977 76.5658 5.75977C74.7609 5.75977 73.5577 6.74434 73.0674 7.68415H73.0229V6.05066H69.48V17.9998H73.1789V12.07C73.1789 10.5036 73.4685 9.00437 75.3848 9.00437C77.2788 9.00437 77.3011 10.7721 77.3011 12.1595V17.9774H81V17.9998Z" fill="black"/>
<path id="Path_2" d="M63.72 5.75977H67.32V17.9998H63.72V5.75977Z" fill="black"/>
<path id="Path_3" d="M65.16 0C63.9675 0 63 0.962487 63 2.14881C63 3.33513 63.9675 4.32 65.16 4.32C66.3525 4.32 67.32 3.33513 67.32 2.14881C67.32 0.962487 66.3525 0 65.16 0Z" fill="black"/>
</g>
<g id="twitter (1)">
<g id="_x30_4.Twitter">
<path d="M47 5.79785C46.2875 6.10138 45.5513 6.31152 44.7675 6.40492C45.575 5.93794 46.1925 5.19078 46.4775 4.28018C45.7175 4.72381 44.8862 5.02734 44.0075 5.21413C43.295 4.46697 42.2738 4 41.1575 4C38.9963 4 37.2625 5.7278 37.2625 7.82919C37.2625 8.13272 37.2863 8.4129 37.3575 8.69309C34.1275 8.553 31.2775 7.01198 29.3537 4.70046C27.9762 7.12873 29.52 9.13671 30.5412 9.81382C29.9237 9.81382 29.3062 9.62704 28.7837 9.34685C28.7837 11.2381 30.1375 12.8025 31.895 13.1527C31.515 13.2694 30.66 13.3395 30.1375 13.2227C30.6363 14.7404 32.085 15.8611 33.7712 15.8845C32.4412 16.9118 30.4938 17.729 28 17.4722C29.7337 18.5696 31.7763 19.2 33.985 19.2C41.1575 19.2 45.0525 13.3628 45.0525 8.31951C45.0525 8.15607 45.0525 7.99263 45.0287 7.82919C45.8363 7.24547 46.5012 6.56836 47 5.79785Z" fill="black"/>
<path d="M47 5.79785C46.2875 6.10138 45.5513 6.31152 44.7675 6.40492C45.575 5.93794 46.1925 5.19078 46.4775 4.28018C45.7175 4.72381 44.8862 5.02734 44.0075 5.21413C43.295 4.46697 42.2738 4 41.1575 4C38.9963 4 37.2625 5.7278 37.2625 7.82919C37.2625 8.13272 37.2863 8.4129 37.3575 8.69309C34.1275 8.553 31.2775 7.01198 29.3537 4.70046C27.9762 7.12873 29.52 9.13671 30.5412 9.81382C29.9237 9.81382 29.3062 9.62704 28.7837 9.34685C28.7837 11.2381 30.1375 12.8025 31.895 13.1527C31.515 13.2694 30.66 13.3395 30.1375 13.2227C30.6363 14.7404 32.085 15.8611 33.7712 15.8845C32.4412 16.9118 30.4938 17.729 28 17.4722C29.7337 18.5696 31.7763 19.2 33.985 19.2C41.1575 19.2 45.0525 13.3628 45.0525 8.31951C45.0525 8.15607 45.0525 7.99263 45.0287 7.82919C45.8363 7.24547 46.5012 6.56836 47 5.79785Z" fill="black"/>
</g>
</g>
<g id="google-plus">
<path id="Path_4" d="M124 10.1905H121.524V7.71436H119.048V10.1905H116.571V12.6667H119.048V15.1429H121.524V12.6667H124V10.1905Z" fill="black"/>
<path id="Path_5" d="M105.893 13.2083H111.023C110.497 15.4446 108.392 17.1548 105.893 17.1548C102.999 17.1548 100.631 14.7869 100.631 11.8929C100.631 8.99881 102.999 6.63095 105.893 6.63095C107.34 6.63095 108.655 7.15714 109.576 8.20952L111.418 6.36786C109.971 4.92083 107.998 4 105.893 4C101.552 4 98 7.55179 98 11.8929C98 16.2339 101.552 19.7857 105.893 19.7857C110.234 19.7857 113.786 16.2339 113.786 11.8929V10.5774H105.893V13.2083Z" fill="black"/>
</g>
</g>
</svg>
