<svg width="80" height="81" viewBox="0 0 80 81" fill="none" xmlns="http://www.w3.org/2000/svg">
<g id="Shape / Square">
<path id="Vector" d="M10 21.63V60.2966C10 64.0303 10 65.8946 10.7266 67.3206C11.3658 68.575 12.3849 69.5976 13.6393 70.2367C15.064 70.9626 16.93 70.9626 20.6564 70.9626H59.3436C63.07 70.9626 64.9333 70.9626 66.358 70.2367C67.6124 69.5976 68.6349 68.575 69.2741 67.3206C70 65.896 70 64.0327 70 60.3063V21.619C70 17.8926 70 16.0267 69.2741 14.602C68.6349 13.3476 67.6124 12.3284 66.358 11.6893C64.9319 10.9626 63.0677 10.9626 59.334 10.9626H20.6673C16.9336 10.9626 15.0654 10.9626 13.6393 11.6893C12.3849 12.3284 11.3658 13.3476 10.7266 14.602C10 16.028 10 17.8963 10 21.63Z" stroke="#737272" stroke-width="6.66667" stroke-linecap="round" strokeLinejoin="round"/>
</g>
</svg>
