<svg width="22" height="22" viewBox="0 0 22 22" fill="none" xmlns="http://www.w3.org/2000/svg">
<g id="Interface / Star">
<path id="Vector" d="M2.69542 9.60515C2.43275 9.36224 2.57543 8.9231 2.93072 8.88098L7.96492 8.28387C8.10972 8.2667 8.2355 8.17577 8.29657 8.04336L10.4199 3.43998C10.5698 3.1151 11.0316 3.11504 11.1815 3.43992L13.3049 8.04326C13.3659 8.17567 13.4909 8.26684 13.6357 8.28401L18.6702 8.88098C19.0255 8.9231 19.1677 9.36237 18.9051 9.60528L15.1836 13.0474C15.0765 13.1465 15.0288 13.2938 15.0573 13.4368L16.0449 18.4091C16.1147 18.76 15.7412 19.0319 15.429 18.8571L11.0055 16.3804C10.8782 16.3092 10.7236 16.3095 10.5964 16.3807L6.17239 18.8565C5.86019 19.0313 5.48605 18.76 5.55577 18.4091L6.54361 13.4371C6.57203 13.2941 6.52448 13.1464 6.41743 13.0474L2.69542 9.60515Z" stroke="black" stroke-width="1.00624" stroke-linecap="round" strokeLinejoin="round"/>
</g>
</svg>
