<svg width="22" height="22" viewBox="0 0 22 22" fill="none" xmlns="http://www.w3.org/2000/svg">
<path d="M2.69371 9.60417C2.43104 9.36126 2.57372 8.92213 2.92901 8.88L7.96322 8.28289C8.10802 8.26572 8.23379 8.17479 8.29486 8.04238L10.4182 3.439C10.5681 3.11412 11.0299 3.11406 11.1798 3.43894L13.3031 8.04229C13.3642 8.17469 13.4892 8.26587 13.634 8.28304L18.6685 8.88C19.0237 8.92213 19.166 9.36139 18.9034 9.6043L15.1819 13.0465C15.0748 13.1455 15.0271 13.2928 15.0556 13.4359L16.0432 18.4081C16.113 18.759 15.7395 19.0309 15.4273 18.8562L11.0037 16.3794C10.8765 16.3082 10.7219 16.3085 10.5947 16.3797L6.17068 18.8555C5.85848 19.0303 5.48434 18.759 5.55406 18.4081L6.5419 13.4362C6.57032 13.2931 6.52278 13.1454 6.41572 13.0464L2.69371 9.60417Z" fill="#FFE234" stroke="black" stroke-width="1.00624" stroke-linecap="round" strokeLinejoin="round"/>
</svg>
