<svg width="48" height="49" viewBox="0 0 48 49" fill="none" xmlns="http://www.w3.org/2000/svg">
<rect width="47.9747" height="48" transform="translate(0.0117188 0.328125)" fill="white"/>
<mask id="mask0_1190_7794" style="mask-type:luminance" maskUnits="userSpaceOnUse" x="7" y="7" width="34" height="34">
<path d="M7.01172 7.71094H40.9954V40.9424H7.01172V7.71094Z" fill="white"/>
</mask>
<g mask="url(#mask0_1190_7794)">
<path d="M40.0825 25.2299C40.1026 24.3681 39.7814 23.518 39.1852 22.8732C38.5502 22.1857 37.6463 21.784 36.6966 21.7647C36.4987 21.559 36.2771 21.3799 36.0341 21.2289C36.1001 17.0887 36.1795 12.0311 36.1787 9.48159C36.1787 8.5051 35.3703 7.71094 34.3764 7.71094H14.3018C13.3079 7.71094 12.4995 8.5051 12.4995 9.48159V29.9164H8.81407C7.8205 29.9164 7.01172 30.7105 7.01172 31.687V36.4636C7.01172 38.8252 8.86897 40.7665 11.2564 40.9203L11.2777 40.9299H30.1882V40.9307H31.4514C33.2873 40.9307 34.7365 40.0915 35.413 38.663C35.5596 38.7 35.7112 38.7193 35.8636 38.7193C36.091 38.7193 36.3135 38.6783 36.5249 38.5961C37.2182 38.3273 37.6668 37.6804 37.6668 36.9491V32.8664C38.0823 32.7106 38.4674 32.4747 38.7944 32.1749C39.4421 31.5808 39.833 30.76 39.8858 29.8999C40.516 29.3005 40.895 28.4734 40.9323 27.6023C40.9679 26.7329 40.6598 25.8788 40.0825 25.2299Z" fill="white"/>
</g>
<path d="M39.6534 25.3905C39.719 24.5811 39.4436 23.7757 38.8745 23.1594C38.3026 22.5404 37.4835 22.1857 36.626 22.1857C36.5871 22.1857 36.5494 22.1865 36.5109 22.1882C36.2601 21.8955 35.9537 21.6524 35.6103 21.4725C35.6849 16.7651 35.759 11.9969 35.7582 9.48968C35.7582 8.74181 35.1387 8.13281 34.3771 8.13281H14.3025C13.5408 8.13281 12.9214 8.74181 12.9214 9.48968V30.3382H8.81475C8.0535 30.3382 7.43359 30.9472 7.43359 31.6951V36.4717C7.43359 38.6417 9.17858 40.4192 11.3624 40.5198L11.3722 40.5246H30.6097V40.5254H31.4521C33.3106 40.5254 34.6622 39.6234 35.1801 38.1357C35.387 38.2512 35.623 38.314 35.8643 38.314C36.0385 38.314 36.2089 38.2826 36.3712 38.2198C36.9026 38.0138 37.2463 37.5187 37.2463 36.9572V32.5758C37.7138 32.4494 38.1461 32.2131 38.5074 31.8815C39.1265 31.3131 39.4682 30.5335 39.4711 29.7212C40.0963 29.1903 40.4761 28.4271 40.5118 27.5943C40.5462 26.7611 40.2319 25.9706 39.6534 25.3905Z" fill="#FFFFFE"/>
<path d="M31.4518 39.6902H11.5587C11.2613 39.6902 11.0195 39.4531 11.0195 39.1605C11.0195 38.8683 11.2613 38.6312 11.5587 38.6312H31.4518C32.8005 38.6312 33.4868 37.9767 33.4917 36.6863C33.4934 36.2427 33.4962 35.7685 33.5003 35.2686C33.5024 34.9776 33.7433 34.7433 34.0391 34.7433H34.0436C34.3411 34.7453 34.5804 34.9844 34.5783 35.2767C34.5746 35.7754 34.5722 36.2483 34.5697 36.6911C34.5627 38.5692 33.3971 39.691 31.4518 39.691V39.6902ZM14.3022 32.2184C14.0043 32.2184 13.763 31.9809 13.763 31.6887V9.48283C13.763 9.19021 14.0043 8.95312 14.3022 8.95312H34.3776C34.675 8.95312 34.9167 9.19021 34.9167 9.48283C34.9172 12.069 34.8389 17.0324 34.7553 22.2872L34.7524 22.48C34.7475 22.7698 34.5074 23.0012 34.2133 23.0012C34.2104 23.0012 34.2079 23.0012 34.2051 23.0012C33.9072 22.9964 33.67 22.7557 33.6745 22.4635L33.6773 22.2707C33.7552 17.3592 33.8293 12.7033 33.838 10.0121H14.841V31.6883C14.841 31.9805 14.5996 32.2176 14.3022 32.2176V32.2184Z" fill="#1C759E"/>
<path d="M11.5565 39.6957C9.74637 39.6957 8.27344 38.2491 8.27344 36.4704V31.6938C8.27344 31.4011 8.51476 31.1641 8.81222 31.1641H14.3C14.5974 31.1641 14.8388 31.4011 14.8388 31.6938V36.4704C14.8388 38.2483 13.3662 39.6957 11.5557 39.6957H11.5565ZM9.35141 32.2239V36.4708C9.35141 37.665 10.3401 38.6371 11.5565 38.6371C12.7726 38.6371 13.7616 37.6659 13.7616 36.4708V32.2239H9.35141Z" fill="#1C759E"/>
<path d="M20.7795 12.9028H17.8517C17.5538 12.9028 17.3125 12.6657 17.3125 12.3731C17.3125 12.0808 17.5538 11.8438 17.8517 11.8438H20.7795C21.077 11.8438 21.3183 12.0808 21.3183 12.3731C21.3183 12.6657 21.077 12.9028 20.7795 12.9028Z" fill="#1C759E"/>
<path d="M19.3126 16.3245C19.0152 16.3245 18.7734 16.0874 18.7734 15.7952V12.3731C18.7734 12.0808 19.0152 11.8438 19.3126 11.8438C19.6101 11.8438 19.8518 12.0808 19.8518 12.3731V15.7952C19.8518 16.0874 19.6101 16.3245 19.3126 16.3245Z" fill="#1C759E"/>
<path d="M27.9213 16.3234C27.7992 16.3234 27.6762 16.2827 27.5755 16.1994C27.3472 16.0114 27.3177 15.6774 27.5087 15.4536L30.4295 12.033C30.6213 11.8088 30.961 11.7798 31.1892 11.9674C31.417 12.1558 31.4465 12.4895 31.2555 12.7137L28.3347 16.1338C28.2281 16.2586 28.0749 16.323 27.9213 16.3234Z" fill="#1C759E"/>
<path d="M30.8433 16.3229C30.6896 16.3229 30.5368 16.2589 30.4299 16.1341L27.509 12.7136C27.3173 12.4898 27.3476 12.1561 27.5758 11.9677C27.8036 11.7793 28.1432 11.8091 28.335 12.0333L31.2559 15.4535C31.4476 15.6777 31.4173 16.0114 31.1895 16.1997C31.0883 16.2831 30.9654 16.3237 30.8433 16.3237V16.3229Z" fill="#1C759E"/>
<path d="M17.5447 19.2856H16.4884C16.191 19.2856 15.9492 19.0485 15.9492 18.7559C15.9492 18.4636 16.191 18.2266 16.4884 18.2266H17.5447C17.8421 18.2266 18.0838 18.4636 18.0838 18.7559C18.0838 19.0485 17.8421 19.2856 17.5447 19.2856Z" fill="#1C759E"/>
<path d="M32.2072 19.2856H19.3982C19.1007 19.2856 18.8594 19.0485 18.8594 18.7559C18.8594 18.4636 19.1007 18.2266 19.3982 18.2266H32.2072C32.5046 18.2266 32.7464 18.4636 32.7464 18.7559C32.7464 19.0485 32.5046 19.2856 32.2072 19.2856Z" fill="#1C759E"/>
<path d="M17.5447 22.3012H16.4884C16.191 22.3012 15.9492 22.0641 15.9492 21.7715C15.9492 21.4793 16.191 21.2422 16.4884 21.2422H17.5447C17.8421 21.2422 18.0838 21.4793 18.0838 21.7715C18.0838 22.0641 17.8421 22.3012 17.5447 22.3012Z" fill="#1C759E"/>
<path d="M32.2072 22.3012H19.3982C19.1007 22.3012 18.8594 22.0641 18.8594 21.7715C18.8594 21.4793 19.1007 21.2422 19.3982 21.2422H32.2072C32.5046 21.2422 32.7464 21.4793 32.7464 21.7715C32.7464 22.0641 32.5046 22.3012 32.2072 22.3012Z" fill="#1C759E"/>
<path d="M27.0362 26.2153H16.4884C16.191 26.2153 15.9492 25.9782 15.9492 25.686C15.9492 25.3933 16.191 25.1562 16.4884 25.1562H27.0362C27.3336 25.1562 27.575 25.3933 27.575 25.686C27.575 25.9782 27.3336 26.2153 27.0362 26.2153Z" fill="#1C759E"/>
<path d="M27.0362 29.6762H16.4884C16.191 29.6762 15.9492 29.4391 15.9492 29.1469C15.9492 28.8543 16.191 28.6172 16.4884 28.6172H27.0362C27.3336 28.6172 27.575 28.8543 27.575 29.1469C27.575 29.4391 27.3336 29.6762 27.0362 29.6762Z" fill="#1C759E"/>
<path d="M29.0868 33.1449H16.4884C16.191 33.1449 15.9492 32.9079 15.9492 32.6152C15.9492 32.323 16.191 32.0859 16.4884 32.0859H29.0868C29.3843 32.0859 29.6256 32.323 29.6256 32.6152C29.6256 32.9079 29.3843 33.1449 29.0868 33.1449Z" fill="#1C759E"/>
<path d="M29.0868 36.6059H16.4884C16.191 36.6059 15.9492 36.3688 15.9492 36.0762C15.9492 35.784 16.191 35.5469 16.4884 35.5469H29.0868C29.3843 35.5469 29.6256 35.784 29.6256 36.0762C29.6256 36.3688 29.3843 36.6059 29.0868 36.6059Z" fill="#1C759E"/>
<path d="M34.297 25.9224C33.9995 25.9224 33.7578 25.6849 33.7578 25.3927V24.7012C33.7578 24.409 33.9995 24.1719 34.297 24.1719C34.5945 24.1719 34.8362 24.409 34.8362 24.7012V25.3927C34.8362 25.6849 34.5945 25.9224 34.297 25.9224Z" fill="#1C759E"/>
<path d="M34.2107 30.4927C33.9132 30.4927 33.6719 30.2556 33.6719 29.9634V29.2719C33.6719 28.9797 33.9132 28.7422 34.2107 28.7422C34.5085 28.7422 34.7498 28.9797 34.7498 29.2719V29.9634C34.7498 30.2556 34.5085 30.4927 34.2107 30.4927Z" fill="#1C759E"/>
<path d="M34.0903 29.807C34.0629 29.807 34.0362 29.807 34.0096 29.805C33.3209 29.7712 32.6309 29.2857 32.6407 28.2783C32.6436 27.988 32.8845 27.7542 33.1799 27.7542H33.1857C33.4831 27.757 33.7224 27.9965 33.7191 28.2887C33.7154 28.6775 33.8908 28.7383 34.0637 28.7472C34.3406 28.7617 34.6172 28.5934 34.6299 28.4534C34.6299 28.4465 34.6311 28.4397 34.632 28.4328C34.6811 28.0673 34.0207 27.8198 33.9457 27.7928C32.662 27.3344 32.5596 26.6106 32.6993 26.083C32.9562 25.1165 33.7883 24.7792 34.455 24.875C35.242 24.9881 35.771 25.6225 35.7423 26.4174C35.7316 26.7097 35.4817 26.9407 35.1843 26.9278C34.8868 26.9174 34.6545 26.6718 34.6651 26.3796C34.6783 26.0065 34.3886 25.936 34.2984 25.9232C34.1981 25.9087 33.8621 25.897 33.7421 26.3498C33.7232 26.4215 33.6831 26.572 34.314 26.7974C35.0601 27.0643 35.8152 27.6668 35.7021 28.5596C35.6243 29.3224 34.8241 29.8062 34.0903 29.8062V29.807Z" fill="#1C759E"/>
<path d="M32.5158 37.4831C32.451 37.4831 32.3867 37.4714 32.3236 37.4481C32.1142 37.37 31.9766 37.1728 31.9766 36.9538V31.0405C31.9766 30.8344 32.0987 30.6468 32.2896 30.5603L32.2982 30.5567C32.44 30.4927 32.6026 30.4911 32.7452 30.5547C32.8878 30.6175 32.9951 30.7382 33.0398 30.8847C33.1783 31.3359 33.5929 31.6467 34.0715 31.66C34.5545 31.6728 34.9827 31.3842 35.1453 30.9423C35.1986 30.7966 35.3145 30.6815 35.4612 30.6271C35.6079 30.5724 35.7722 30.5836 35.9103 30.6573C35.9566 30.6823 36.0053 30.7036 36.0549 30.7221C36.2663 30.7994 36.4064 30.9974 36.4064 31.2184V36.9538C36.4064 37.1716 36.2712 37.3668 36.0647 37.4465C35.8586 37.5266 35.6239 37.4743 35.4731 37.3149L34.1649 35.9338L32.9165 37.3068C32.812 37.4211 32.6653 37.4831 32.5141 37.4831H32.5158ZM34.1579 34.6184C34.3074 34.6184 34.4504 34.6796 34.5525 34.7875L35.3301 35.6078V32.3507C34.9601 32.597 34.5123 32.7319 34.042 32.719C33.6875 32.7093 33.3508 32.6167 33.0545 32.4581V35.5672L33.756 34.7963C33.8568 34.6853 34.0006 34.6213 34.1522 34.6196H34.1579V34.6184Z" fill="#1C759E"/>
<path d="M34.1008 32.719C34.0807 32.719 34.0602 32.719 34.0397 32.7186C33.2834 32.6976 32.6082 32.3 32.2292 31.6857C31.5118 31.823 30.7583 31.5996 30.2338 31.063C29.7094 30.5265 29.5136 29.777 29.6828 29.0786C29.0735 28.6818 28.697 28.0023 28.7072 27.2593C28.7179 26.5158 29.1137 25.8473 29.7336 25.4665C29.584 24.7633 29.8008 24.0199 30.34 23.4974C30.8787 22.9749 31.6388 22.7721 32.3521 22.9295C32.7479 22.3253 33.4333 21.9453 34.1905 21.9453C35.0034 21.9453 35.7359 22.3937 36.1125 23.0691C36.8737 22.8884 37.7046 23.1211 38.2508 23.7119C38.7597 24.2626 38.9342 25.0169 38.7453 25.7108C39.3435 26.1242 39.7008 26.8129 39.6696 27.5563C39.6381 28.2998 39.2243 28.9575 38.5933 29.3206C38.7232 30.0274 38.4852 30.7652 37.932 31.2727C37.3789 31.7799 36.6136 31.9626 35.9043 31.7863C35.5032 32.3636 34.8329 32.7206 34.1004 32.7206L34.1008 32.719ZM32.5209 30.508C32.5955 30.508 32.67 30.5233 32.7393 30.5535C32.8831 30.6162 32.9921 30.737 33.0375 30.8851C33.176 31.3359 33.5907 31.6471 34.0692 31.66C34.5502 31.672 34.9804 31.3842 35.1431 30.9423C35.1963 30.797 35.3123 30.6819 35.459 30.6271C35.6057 30.5728 35.77 30.584 35.908 30.6577C36.3284 30.8831 36.8463 30.8191 37.1966 30.4975C37.5469 30.1763 37.6477 29.6732 37.4477 29.2457C37.3818 29.1048 37.3818 28.9434 37.4477 28.8029C37.5133 28.6624 37.6379 28.5574 37.7895 28.5147C38.25 28.3851 38.5728 27.9826 38.5925 27.5117C38.6122 27.0407 38.3245 26.6133 37.8767 26.447C37.7292 26.3927 37.6141 26.2776 37.5608 26.1318C37.5076 25.9865 37.5207 25.8259 37.5981 25.6915C37.8333 25.2817 37.7747 24.7714 37.4527 24.4232C37.1024 24.0448 36.523 23.9567 36.0744 24.2131C35.9248 24.2984 35.7429 24.3081 35.5844 24.24C35.4266 24.1712 35.3115 24.0319 35.2758 23.8657C35.1677 23.3666 34.7112 23.0039 34.1905 23.0039C33.7115 23.0039 33.2883 23.3038 33.1371 23.7506C33.0875 23.8971 32.9757 24.015 32.8298 24.0738C32.6848 24.1326 32.5205 24.1253 32.3799 24.0553C31.9534 23.8407 31.4376 23.9192 31.0963 24.2505C30.7554 24.5814 30.6681 25.0865 30.8804 25.5088C30.9496 25.6472 30.9545 25.8086 30.8927 25.9507C30.8312 26.0924 30.7095 26.2015 30.5596 26.2478C30.1027 26.3899 29.7918 26.8012 29.7848 27.2722C29.7782 27.7431 30.0773 28.1629 30.5301 28.3175C30.6788 28.3678 30.7972 28.4801 30.855 28.6238C30.9123 28.7671 30.9033 28.9285 30.8304 29.065C30.6067 29.4808 30.6796 29.9887 31.0115 30.3288C31.3434 30.6686 31.8563 30.7611 32.2894 30.5583C32.3623 30.5237 32.4418 30.5068 32.5209 30.5068V30.508Z" fill="#1C759E"/>
<path d="M23.3052 16.3203C23.254 16.3203 23.2028 16.3135 23.1508 16.2986C22.8652 16.2149 22.7034 15.9198 22.7882 15.6401L23.8268 12.2147C23.8948 11.9897 24.1046 11.8359 24.3435 11.8359C24.5819 11.8359 24.7917 11.9897 24.8597 12.2147L25.8987 15.6401C25.9836 15.9198 25.8213 16.2149 25.5357 16.2986C25.2502 16.3819 24.9502 16.2225 24.8654 15.942L24.3435 14.2204L24.3414 14.2273L23.8211 15.942C23.7518 16.1714 23.5371 16.3203 23.3052 16.3203Z" fill="#1C759E"/>
<path d="M25.1908 15.684H23.504C23.2062 15.684 22.9648 15.4469 22.9648 15.1547C22.9648 14.8621 23.2062 14.625 23.504 14.625H25.1908C25.4887 14.625 25.73 14.8621 25.73 15.1547C25.73 15.4469 25.4887 15.684 25.1908 15.684Z" fill="#1C759E"/>
</svg>
