<svg xmlns="http://www.w3.org/2000/svg" width="32" height="33" viewBox="0 0 32 33" fill="none">
  <g clipPath="url(#clip0_1513_7691)">
    <path d="M8.39258 14.7124L14.8786 14.4818L18.9372 20.9366L8.39258 14.7124ZM20.4253 8.17281L20.2956 20.5545L16.0464 13.7972L20.4253 8.17281ZM21.2702 23.5066C21.4773 23.3834 21.6075 23.1583 21.6103 22.9142L21.6126 22.6577L21.6167 22.6554L21.6126 22.6489L21.7851 6.19379C21.7879 5.90108 21.6103 5.64172 21.3411 5.54585C21.0733 5.44998 20.7718 5.53936 20.5942 5.76862L14.8786 13.1118L6.01032 13.4253C5.71167 13.4355 5.45444 13.6481 5.37944 13.9464C5.37944 13.9464 5.37944 13.9478 5.37851 13.9478C5.30489 14.2446 5.43097 14.5531 5.68866 14.7059L20.602 23.508C20.8077 23.6298 21.0627 23.6298 21.2702 23.5066Z" fill="#12B76A"/>
  </g>
  <defs>
    <clipPath id="clip0_1513_7691">
      <rect width="22.027" height="22.027" fill="white" transform="translate(31.9453 16.5234) rotate(135)"/>
    </clipPath>
  </defs>
</svg>
