<svg xmlns="http://www.w3.org/2000/svg" width="51" height="51" viewBox="0 0 51 51" fill="none">
  <path d="M3.47266 25.527C3.47266 13.3618 13.3345 3.5 25.4997 3.5C37.6649 3.5 47.5267 13.3618 47.5267 25.527C47.5267 37.6922 37.6649 47.5541 25.4997 47.5541C13.3345 47.5541 3.47266 37.6922 3.47266 25.527Z" fill="none" fill-opacity="0.6"/>
  <path d="M25.5 1.84766C38.5774 1.84783 49.1787 12.4499 49.1787 25.5273C49.1785 38.6047 38.5773 49.2059 25.5 49.2061C12.4225 49.2061 1.82048 38.6048 1.82031 25.5273C1.82031 12.4498 12.4224 1.84766 25.5 1.84766Z" stroke="#FEE4E2" stroke-opacity="0.0" stroke-width="3.30405"/>
  <mask id="mask0_1513_7695" style="mask-type:luminance" maskUnits="userSpaceOnUse" x="15" y="18" width="22" height="21">
    <path d="M15.5898 21.9219L33.57 18.9181L36.2922 35.2125L18.312 38.2163L15.5898 21.9219Z" fill="white"/>
  </mask>
  <g mask="url(#mask0_1513_7695)">
    <path d="M26.9301 33.6225L25.6339 27.2632L31.3317 22.1964L26.9301 33.6225ZM18.4972 22.8318L30.731 20.9195L24.7663 26.224L18.4972 22.8318ZM33.4822 19.4718C33.3265 19.2878 33.083 19.1965 32.8419 19.234L32.5884 19.274L32.5854 19.2703L32.5797 19.2754L16.3211 21.8167C16.032 21.8622 15.8054 22.0801 15.7552 22.3614C15.7048 22.6414 15.8426 22.9239 16.098 23.0614L24.2826 27.4889L26.0532 36.1843C26.1124 36.4771 26.3645 36.6958 26.6711 36.7207C26.6711 36.7207 26.6724 36.7204 26.6726 36.7213C26.9775 36.745 27.261 36.5698 27.3693 36.2905L33.5936 20.1306C33.6799 19.9076 33.6379 19.6562 33.4822 19.4718Z" fill="#F04438"/>
  </g>
</svg>
