<svg xmlns="http://www.w3.org/2000/svg" width="51" height="51" viewBox="0 0 51 51" fill="none">
  <path d="M25.5 1.84766C38.5774 1.84783 49.1787 12.4499 49.1787 25.5273C49.1785 38.6047 38.5773 49.2059 25.5 49.2061C12.4225 49.2061 1.82048 38.6048 1.82031 25.5273C1.82031 12.4498 12.4224 1.84766 25.5 1.84766Z" fill="none" fill-opacity="0.0"/>
  <path d="M25.5 1.84766C38.5774 1.84783 49.1787 12.4499 49.1787 25.5273C49.1785 38.6047 38.5773 49.2059 25.5 49.2061C12.4225 49.2061 1.82048 38.6048 1.82031 25.5273C1.82031 12.4498 12.4224 1.84766 25.5 1.84766Z" stroke="none" stroke-width="3.30405"/>
  <path d="M16.845 31.1531L30.8749 16.1395C30.9457 16.0644 31.0058 15.9826 31.0556 15.8945C31.1055 15.8063 31.143 15.7146 31.1677 15.6206C31.1924 15.5265 31.2034 15.4333 31.2009 15.3411C31.1988 15.2493 31.1827 15.1628 31.1532 15.0808C31.1237 14.9994 31.0821 14.9269 31.0281 14.8628C30.9741 14.7986 30.9104 14.7456 30.8366 14.7047C30.7629 14.663 30.6826 14.6354 30.5955 14.6206C30.508 14.6062 30.4181 14.6056 30.3254 14.6184L22.7968 15.6821C22.7358 15.6909 22.6749 15.7054 22.6142 15.7257C22.5532 15.7457 22.4936 15.7718 22.4355 15.8033C22.3774 15.8349 22.3219 15.8713 22.2687 15.9122C22.2154 15.9539 22.1656 15.9988 22.1192 16.0485C22.0728 16.0981 22.0313 16.1508 21.9933 16.2068C21.9561 16.2627 21.9236 16.3205 21.896 16.3806C21.8685 16.4407 21.8465 16.5019 21.8306 16.5642C21.8145 16.6261 21.8042 16.6879 21.7996 16.7493C21.7949 16.8115 21.7965 16.8724 21.8042 16.9318C21.8115 16.9915 21.825 17.0482 21.8449 17.1021C21.8644 17.1565 21.8894 17.2071 21.9202 17.2543C21.9506 17.3012 21.9865 17.3436 22.0272 17.3816C22.0679 17.4196 22.1122 17.4522 22.1614 17.4797C22.2102 17.5069 22.2628 17.5287 22.3183 17.5445C22.3731 17.5604 22.4309 17.5703 22.491 17.5736C22.5508 17.5772 22.6113 17.5745 22.6734 17.5659L27.9643 16.837L15.6392 30.0264C15.5928 30.076 15.5506 30.1289 15.5129 30.1851C15.475 30.2411 15.4428 30.2993 15.4148 30.3598C15.3877 30.4202 15.3656 30.4815 15.3498 30.5437C15.3332 30.606 15.3233 30.6682 15.319 30.7299C15.3147 30.7917 15.3164 30.8526 15.3241 30.9112C15.3318 30.9705 15.3457 31.0268 15.3653 31.0804C15.3848 31.1347 15.4098 31.1846 15.4402 31.2314C15.4707 31.2783 15.5062 31.3204 15.5469 31.3584C15.5872 31.3961 15.6316 31.4287 15.6804 31.4559C15.7292 31.4831 15.781 31.505 15.8362 31.5205C15.891 31.5364 15.9481 31.5464 16.0078 31.5501C16.0671 31.5542 16.1277 31.5514 16.189 31.5429C16.2503 31.5344 16.3117 31.5203 16.3727 31.4996C16.4337 31.4796 16.4933 31.4534 16.5518 31.4222C16.6103 31.3903 16.6661 31.3542 16.7198 31.3129C16.773 31.2712 16.8232 31.2258 16.8696 31.1762L16.845 31.1531Z" fill="#02619B"/>
  <path d="M33.1291 18.2483L19.0992 33.2619C19.0284 33.337 18.9683 33.4188 18.9184 33.5077C18.8681 33.5963 18.831 33.6876 18.8063 33.7824C18.7819 33.8767 18.7709 33.97 18.7734 34.0621C18.7766 34.1541 18.7928 34.2406 18.8226 34.3223C18.8521 34.4036 18.894 34.4765 18.9481 34.5398C19.0018 34.6036 19.0655 34.656 19.1393 34.6968C19.2127 34.7382 19.293 34.7658 19.3797 34.7803C19.4665 34.7948 19.5564 34.7954 19.6491 34.7826L27.1489 33.7497C27.2102 33.7404 27.2716 33.7264 27.3326 33.7056C27.3937 33.6849 27.4533 33.6587 27.5114 33.6272C27.5703 33.5955 27.6261 33.5587 27.6794 33.5171C27.7327 33.4754 27.7825 33.4297 27.8289 33.38C27.875 33.33 27.9172 33.2772 27.9548 33.2209C27.9921 33.1643 28.0243 33.1062 28.0518 33.046C28.0794 32.9852 28.1007 32.9241 28.1169 32.8614C28.1328 32.7992 28.1427 32.737 28.147 32.6753C28.1509 32.6132 28.1489 32.5527 28.1411 32.4941C28.133 32.4352 28.1188 32.3786 28.0992 32.325C28.0793 32.2711 28.0543 32.2205 28.0235 32.1741C27.9927 32.1276 27.9571 32.0855 27.9168 32.0479C27.8757 32.0103 27.8314 31.9777 27.7821 31.9509C27.7333 31.9237 27.6815 31.9026 27.6263 31.8863C27.5711 31.8708 27.5137 31.8613 27.4543 31.8579C27.3946 31.8542 27.3344 31.8566 27.2727 31.8655L21.9817 32.5944L34.3349 19.3751C34.3817 19.3249 34.4235 19.2726 34.4611 19.2163C34.4988 19.16 34.5317 19.1017 34.5589 19.0413C34.5864 18.9812 34.6081 18.9196 34.6247 18.8573C34.6405 18.7951 34.6508 18.7333 34.6555 18.6711C34.6598 18.6093 34.6577 18.5488 34.6496 18.4899C34.6423 18.4309 34.6284 18.3746 34.6089 18.3203C34.5893 18.2667 34.5643 18.2161 34.5335 18.1696C34.5031 18.1228 34.4675 18.0807 34.4272 18.043C34.3869 18.0053 34.3425 17.9727 34.2937 17.9455C34.2452 17.9179 34.1931 17.8964 34.1383 17.8805C34.0827 17.8647 34.0256 17.8547 33.9663 17.8513C33.9069 17.8472 33.8468 17.8496 33.7855 17.8581C33.7234 17.8667 33.6624 17.8811 33.6014 17.9011C33.5403 17.9218 33.4804 17.9476 33.4223 17.9792C33.3638 18.0104 33.3079 18.0472 33.2543 18.0885C33.2007 18.1299 33.1513 18.1751 33.1045 18.2252L33.1291 18.2483Z" fill="#02619B"/>
</svg>
