<svg width="55" height="53" viewBox="0 0 55 53" fill="none" xmlns="http://www.w3.org/2000/svg">
<rect width="54.6931" height="52" transform="translate(0 0.695312)" fill="white"/>
<mask id="mask0_1255_2182" style="mask-type:luminance" maskUnits="userSpaceOnUse" x="11" y="14" width="29" height="28">
<path d="M11.4922 14.1641H39.9785V41.4001H11.4922V14.1641Z" fill="white"/>
</mask>
<g mask="url(#mask0_1255_2182)">
<path d="M39.9687 27.7957C39.9687 28.0171 39.9631 28.2379 39.9513 28.4592C39.94 28.68 39.9231 28.9008 39.9001 29.1211C39.877 29.3413 39.8489 29.5605 39.8146 29.7797C39.7803 29.9984 39.7409 30.2165 39.6954 30.4336C39.6499 30.6506 39.5987 30.8666 39.5425 31.081C39.4857 31.2959 39.4238 31.5093 39.3563 31.721C39.2883 31.9327 39.2157 32.1428 39.137 32.3513C39.0589 32.5593 38.9751 32.7656 38.8857 32.9704C38.7968 33.1746 38.7024 33.3772 38.6028 33.5772C38.5033 33.7771 38.3987 33.975 38.2891 34.1701C38.1794 34.3652 38.0647 34.5577 37.9449 34.7475C37.8251 34.9373 37.7009 35.1244 37.5715 35.3083C37.4422 35.4922 37.3084 35.6729 37.1695 35.851C37.0312 36.0285 36.8878 36.2027 36.7399 36.3738C36.5925 36.5449 36.4407 36.7128 36.2844 36.8764C36.1281 37.0405 35.9673 37.2009 35.8031 37.3575C35.6383 37.5136 35.4696 37.6666 35.297 37.8152C35.1249 37.9638 34.9483 38.1082 34.7684 38.2482C34.5885 38.3888 34.4051 38.5252 34.2185 38.6567C34.0312 38.7887 33.8411 38.916 33.6477 39.0389C33.4543 39.1619 33.2575 39.2801 33.0578 39.3939C32.8582 39.5078 32.6558 39.6169 32.4505 39.7211C32.2453 39.8254 32.0372 39.9248 31.8269 40.0194C31.6166 40.1141 31.4035 40.2039 31.1887 40.2884C30.9733 40.3734 30.7563 40.453 30.5375 40.5273C30.3182 40.6022 30.0973 40.6712 29.8746 40.7358C29.6519 40.8 29.4275 40.8588 29.2015 40.9128C28.976 40.9663 28.7488 41.0149 28.5205 41.0582C28.2922 41.101 28.0628 41.139 27.8328 41.1716C27.6023 41.2042 27.3717 41.2309 27.14 41.2528C26.9084 41.2747 26.6761 41.2908 26.4439 41.3015C26.2111 41.3127 25.9789 41.3181 25.7461 41.3181C25.5133 41.3181 25.2805 41.3127 25.0482 41.3015C24.8154 41.2908 24.5832 41.2747 24.3521 41.2528C24.1204 41.2309 23.8893 41.2042 23.6587 41.1716C23.4288 41.139 23.1993 41.101 22.971 41.0582C22.7427 41.0149 22.5156 40.9663 22.2901 40.9128C22.064 40.8588 21.8402 40.8 21.617 40.7358C21.3943 40.6712 21.1733 40.6022 20.9546 40.5273C20.7353 40.453 20.5182 40.3734 20.3029 40.2884C20.0881 40.2039 19.8755 40.1141 19.6646 40.0194C19.4543 39.9248 19.2468 39.8254 19.0416 39.7211C18.8363 39.6169 18.6333 39.5078 18.4337 39.3939C18.2341 39.2801 18.0379 39.1619 17.8444 39.0389C17.6504 38.916 17.4604 38.7887 17.2737 38.6567C17.0864 38.5252 16.9031 38.3888 16.7232 38.2482C16.5432 38.1082 16.3672 37.9638 16.1946 37.8152C16.022 37.6666 15.8533 37.5136 15.6891 37.3575C15.5243 37.2009 15.364 37.0405 15.2077 36.8764C15.0514 36.7128 14.899 36.5449 14.7517 36.3738C14.6038 36.2027 14.461 36.0285 14.3221 35.851C14.1832 35.6729 14.0494 35.4922 13.92 35.3083C13.7907 35.1244 13.6664 34.9373 13.5466 34.7475C13.4269 34.5577 13.3122 34.3652 13.2025 34.1701C13.0929 33.975 12.9883 33.7771 12.8887 33.5772C12.7892 33.3772 12.6947 33.1746 12.6059 32.9704C12.5165 32.7656 12.4333 32.5593 12.3545 32.3513C12.2764 32.1428 12.2033 31.9327 12.1358 31.721C12.0683 31.5093 12.0059 31.2959 11.9497 31.081C11.8929 30.8666 11.8417 30.6506 11.7967 30.4336C11.7512 30.2165 11.7113 29.9984 11.6769 29.7797C11.6432 29.5605 11.6145 29.3413 11.5915 29.1211C11.569 28.9008 11.5516 28.68 11.5403 28.4592C11.5291 28.2379 11.5234 28.0171 11.5234 27.7957C11.5234 27.5744 11.5291 27.3531 11.5403 27.1323C11.5516 26.9109 11.569 26.6901 11.5915 26.4699C11.6145 26.2501 11.6432 26.0304 11.6769 25.8112C11.7113 25.5925 11.7512 25.3744 11.7967 25.1574C11.8417 24.9403 11.8929 24.7243 11.9497 24.5099C12.0059 24.295 12.0683 24.0822 12.1358 23.87C12.2033 23.6583 12.2764 23.4482 12.3545 23.2402C12.4333 23.0317 12.5165 22.8253 12.6059 22.6206C12.6947 22.4163 12.7892 22.2142 12.8887 22.0138C12.9883 21.8138 13.0929 21.6165 13.2025 21.4214C13.3122 21.2257 13.4269 21.0333 13.5466 20.8435C13.6664 20.6537 13.7907 20.4671 13.92 20.2832C14.0494 20.0987 14.1832 19.918 14.3221 19.7405C14.461 19.5625 14.6038 19.3882 14.7517 19.2171C14.899 19.046 15.0514 18.8787 15.2077 18.7146C15.364 18.5504 15.5243 18.3901 15.6891 18.234C15.8533 18.0773 16.022 17.9249 16.1946 17.7763C16.3672 17.6277 16.5432 17.4828 16.7232 17.3427C16.9031 17.2021 17.0864 17.0663 17.2737 16.9343C17.4604 16.8022 17.6504 16.675 17.8444 16.552C18.0379 16.4291 18.2341 16.3109 18.4337 16.197C18.6333 16.0831 18.8363 15.9741 19.0416 15.8698C19.2468 15.7656 19.4543 15.6661 19.6646 15.5715C19.8755 15.4769 20.0881 15.3871 20.3029 15.3026C20.5182 15.2176 20.7353 15.1385 20.9546 15.0636C21.1733 14.9893 21.3943 14.9198 21.617 14.8556C21.8402 14.791 22.064 14.7321 22.2901 14.6787C22.5156 14.6247 22.7427 14.576 22.971 14.5333C23.1993 14.49 23.4288 14.452 23.6587 14.4194C23.8893 14.3873 24.1204 14.36 24.3521 14.3381C24.5832 14.3167 24.8154 14.3002 25.0482 14.2895C25.2805 14.2788 25.5133 14.2734 25.7461 14.2734C25.9789 14.2734 26.2111 14.2788 26.4439 14.2895C26.6761 14.3002 26.9084 14.3167 27.14 14.3381C27.3717 14.36 27.6023 14.3873 27.8328 14.4194C28.0628 14.452 28.2922 14.49 28.5205 14.5333C28.7488 14.576 28.976 14.6247 29.2015 14.6787C29.4275 14.7321 29.6519 14.791 29.8746 14.8556C30.0973 14.9198 30.3182 14.9893 30.5375 15.0636C30.7563 15.1385 30.9733 15.2176 31.1887 15.3026C31.4035 15.3871 31.6166 15.4769 31.8269 15.5715C32.0372 15.6661 32.2453 15.7656 32.4505 15.8698C32.6558 15.9741 32.8582 16.0831 33.0578 16.197C33.2575 16.3109 33.4543 16.4291 33.6477 16.552C33.8411 16.675 34.0312 16.8022 34.2185 16.9343C34.4051 17.0663 34.5885 17.2021 34.7684 17.3427C34.9483 17.4828 35.1249 17.6277 35.297 17.7763C35.4696 17.9249 35.6383 18.0773 35.8031 18.234C35.9673 18.3901 36.1281 18.5504 36.2844 18.7146C36.4407 18.8787 36.5925 19.046 36.7399 19.2171C36.8878 19.3882 37.0312 19.5625 37.1695 19.7405C37.3084 19.918 37.4422 20.0987 37.5715 20.2832C37.7009 20.4671 37.8251 20.6537 37.9449 20.8435C38.0647 21.0333 38.1794 21.2257 38.2891 21.4214C38.3987 21.6165 38.5033 21.8138 38.6028 22.0138C38.7024 22.2142 38.7968 22.4163 38.8857 22.6206C38.9751 22.8253 39.0589 23.0317 39.137 23.2402C39.2157 23.4482 39.2883 23.6583 39.3563 23.87C39.4238 24.0822 39.4857 24.295 39.5425 24.5099C39.5987 24.7243 39.6499 24.9403 39.6954 25.1574C39.7409 25.3744 39.7803 25.5925 39.8146 25.8112C39.8489 26.0304 39.877 26.2501 39.9001 26.4699C39.9231 26.6901 39.94 26.9109 39.9513 27.1323C39.9631 27.3531 39.9687 27.5744 39.9687 27.7957Z" fill="#30759E"/>
</g>
<path d="M17.9663 25.7998C17.6874 24.561 15.847 23.5447 15.8284 23.5345C15.7896 23.5132 15.7609 23.4784 15.7485 23.4372L15.6974 23.2656C15.3606 23.5479 14.6773 24.1242 14.3265 24.4482C14.002 24.7476 13.9385 25.4416 13.9261 25.726C13.9227 25.8046 13.9475 25.8842 13.9969 25.9505C14.223 26.2531 14.8185 27.0171 15.4601 27.5651C16.1708 28.1724 16.502 28.0847 16.7945 28.0072C16.8192 28.0008 16.8434 27.9944 16.867 27.9885C17.0739 27.9372 18.2525 27.0684 17.9663 25.7998ZM16.6859 25.4186C16.5172 25.8826 16.1034 27.1828 16.2141 27.6191C16.2243 27.6587 16.2074 27.7004 16.172 27.7233C16.1545 27.7346 16.1337 27.7404 16.1135 27.7404C16.0927 27.7404 16.0719 27.7346 16.0539 27.7223C16.005 27.6897 14.8421 26.908 14.7218 26.3258C14.602 25.7479 14.9444 25.1149 14.9591 25.0882C14.9742 25.0604 15.0024 25.0411 15.035 25.0363C15.0794 25.0299 16.132 24.8813 16.6556 25.3122C16.6876 25.3384 16.6994 25.3806 16.6859 25.4186Z" fill="white"/>
<path d="M13.003 19.1119C12.8158 19.3873 12.7483 19.6808 12.813 19.9374C12.8709 20.1651 13.0278 20.3549 13.2673 20.487C13.7132 20.7318 14.6534 21.0537 15.0819 21.1948L14.3127 18.6094C14.0675 18.6153 13.3039 18.6698 13.003 19.1119Z" fill="white"/>
<path d="M23.8249 11.6887C23.8233 11.6845 23.8216 11.6796 23.8204 11.6748C23.8081 11.6347 23.5084 10.6751 22.5985 10.712C21.4374 10.7563 14.3168 11.2862 14.0429 11.3065C14.0058 11.3129 13.7112 11.3717 13.5515 11.6C13.4334 11.7679 13.4103 11.9956 13.4823 12.2774C13.5739 12.6345 14.2397 14.7928 15.0821 17.5247C15.6922 19.5028 16.3838 21.7445 17.0676 23.9819L17.0648 23.9825C17.5922 24.4246 18.1484 25.0341 18.3047 25.7254C18.4858 26.5289 18.1461 27.2367 17.7429 27.7077C18.4644 27.835 20.0749 28.2199 20.703 29.1929C21.5538 30.5113 20.6586 31.7955 20.2357 32.1136C20.1525 32.1767 20.0602 32.228 19.9602 32.2692C20.5922 32.4846 21.3991 32.8781 21.5852 33.5159C21.8563 34.443 21.4345 35.5096 20.6822 35.9538C20.726 36.0746 20.8171 36.2628 20.942 36.3233C20.9763 36.3404 21.0269 36.3553 21.1107 36.3233C21.6285 36.0987 30.1948 31.7613 30.8291 31.44C30.5997 30.9027 30.2657 30.4242 30.2213 30.3616C27.6284 27.4896 28.0946 23.4976 28.0997 23.458L28.1328 23.4617C27.8657 23.211 27.4997 22.9314 27.2236 22.7395C26.9784 22.8352 26.7169 22.8966 26.4746 22.9538C26.4037 22.9704 26.3334 22.987 26.2648 23.0041C25.5125 23.1912 24.4272 23.0308 23.2868 22.563C22.2561 22.1401 22.075 21.4157 21.9777 21.0265L21.9727 21.0067C21.9479 20.9073 21.9642 20.8095 22.0199 20.7234C22.043 20.6881 22.0728 20.6566 22.1071 20.6266C22.1144 20.5972 22.1341 20.5726 22.1633 20.5598C23.3762 20.0204 24.3563 19.8177 24.5576 19.8081C24.5599 19.8081 24.5621 19.8081 24.5644 19.8081C24.5846 19.8081 24.6082 19.8135 24.6324 19.8215C25.0227 19.6878 25.3584 19.5739 25.5473 19.544C25.6305 19.5312 25.8262 19.3868 25.9989 19.2596C26.1878 19.1206 26.411 18.9564 26.6613 18.8169L23.8249 11.6887Z" fill="white"/>
<path d="M21.2526 33.6088C21.0462 32.9015 19.6696 32.492 19.1236 32.3862C18.7851 32.3653 18.3943 32.2824 17.9467 32.1365C17.8714 32.1124 17.7949 32.0846 17.7184 32.0547C17.5435 32.1985 16.9323 32.7406 16.7169 33.4736C16.4532 34.3696 17.3152 35.1582 17.8657 35.4827C18.5911 35.9104 19.506 36.0286 20.2544 35.7912C21.0243 35.5474 21.5095 34.4867 21.2526 33.6088ZM20.2454 35.5998C20.2252 35.6222 20.1965 35.6345 20.1662 35.6345C20.1583 35.6345 20.1504 35.634 20.142 35.6319C19.9609 35.5907 18.36 35.2154 18.0524 34.8187C18.0417 34.8048 18.035 34.7888 18.0327 34.7717C17.9259 33.8778 18.202 33.3324 18.2132 33.3095C18.2301 33.2774 18.2638 33.2565 18.3021 33.2549C18.3746 33.2517 20.0891 33.1838 20.5721 33.4089C20.6098 33.4265 20.6323 33.4629 20.6301 33.5025C20.6205 33.6842 20.5255 35.286 20.2454 35.5998Z" fill="white"/>
<path d="M20.4088 29.3697C19.7829 28.3994 17.9318 28.0695 17.4583 28C17.2655 28.1673 17.0816 28.2743 16.9551 28.3058C16.9331 28.3112 16.9106 28.317 16.8876 28.3229C16.7656 28.355 16.6278 28.3919 16.4614 28.3919C16.2763 28.3919 16.0565 28.3464 15.786 28.2005C15.5611 28.7918 15.4177 29.5568 15.6347 30.0909C15.8541 30.6309 17.0776 31.5071 18.0589 31.8263C18.4896 31.9669 18.8562 32.0444 19.1644 32.0621L19.165 32.06C19.1678 32.0605 19.174 32.0616 19.1813 32.0626C19.5411 32.0803 19.8201 32.014 20.0214 31.8621C20.3655 31.6023 21.1291 30.4855 20.4088 29.3697ZM19.3882 31.8092C19.3786 31.8092 19.3691 31.8081 19.3601 31.8055C18.9046 31.6809 17.4133 31.242 17.3318 30.8266C17.3307 30.8191 17.3301 30.8116 17.3301 30.8041C17.3695 29.9877 17.9357 29.297 17.9599 29.2681C17.9796 29.2441 18.0117 29.2312 18.0415 29.2307C18.0966 29.2307 19.3859 29.243 19.8049 29.4986C19.9291 29.5745 20.0084 29.7188 20.041 29.9273C20.1181 30.4235 19.9061 31.2842 19.4675 31.7745C19.4472 31.7969 19.418 31.8092 19.3882 31.8092Z" fill="white"/>
<path d="M19.6905 29.666C19.3987 29.4874 18.4821 29.4361 18.0902 29.4297C17.976 29.5805 17.5711 30.1578 17.5352 30.8015C17.5993 31.001 18.5057 31.3634 19.3492 31.5997C19.7175 31.1485 19.9003 30.3861 19.8339 29.9579C19.8108 29.8119 19.7602 29.7082 19.6905 29.666Z" fill="white"/>
<path d="M18.3755 33.4466C18.3148 33.5952 18.1607 34.0534 18.2344 34.719C18.4846 34.9884 19.6137 35.3017 20.1198 35.422C20.2733 35.1424 20.3807 34.1822 20.419 33.5594C20.0062 33.4225 18.8737 33.4295 18.3755 33.4466Z" fill="white"/>
<path d="M38.4256 31.0012C38.4099 30.9927 38.3958 30.9825 38.384 30.9697C38.3536 30.9392 37.6401 30.2068 37.5495 29.3765C37.4646 28.5943 34.8622 23.3138 34.0373 22.7824C33.8742 22.6771 33.6611 22.5413 33.4199 22.3868C32.3476 21.7019 30.7275 20.6669 30.321 20.3354L30.2653 20.29C29.753 19.8714 28.3911 18.7599 27.5848 18.8401C27.0584 18.8919 26.5872 19.2394 26.2082 19.5185C25.9546 19.7056 25.7713 19.8403 25.6026 19.8671C25.4772 19.8869 25.2416 19.9622 24.9706 20.0537C25.0999 20.174 25.2101 20.3071 25.2393 20.375C25.2787 20.4659 25.2348 20.5166 25.214 20.5343C25.1061 20.6268 23.2589 21.1897 23.1565 21.2074C23.1487 21.209 23.1402 21.2095 23.1312 21.2095C22.9777 21.2095 22.6325 21.0235 22.3519 20.8551C22.335 20.8684 22.3209 20.8818 22.3119 20.8957C22.3052 20.9059 22.3024 20.9139 22.3069 20.9304L22.3114 20.9502C22.4064 21.3298 22.5498 21.904 23.4219 22.2617C24.4932 22.7011 25.4969 22.8556 26.1762 22.6867C26.2459 22.6691 26.3179 22.6525 26.3898 22.6354C27.145 22.4573 27.8575 22.2895 27.8884 21.3426L28.2331 21.3528C28.2123 21.9858 27.9345 22.3467 27.564 22.5728C27.9283 22.8353 28.647 23.3871 28.7915 23.7533C28.9495 24.1537 29.6187 24.6771 29.947 24.6579L29.9695 24.9845C29.9572 24.9856 29.9442 24.9861 29.9313 24.9861C29.4083 24.9861 28.6627 24.3606 28.4687 23.8682C28.458 23.8415 28.44 23.811 28.4187 23.7789C28.3681 24.722 28.3816 27.8282 30.488 30.1549C30.4919 30.1592 30.4953 30.164 30.4992 30.1688C30.538 30.2223 31.4479 31.4888 31.3883 32.4014L31.0441 32.3805C31.0565 32.1875 31.0154 31.97 30.9452 31.7513C30.3283 32.0635 26.7565 33.8722 24.1181 35.198C25.2062 35.7685 29.3026 37.7931 32.1378 37.5194C32.1946 37.514 32.2497 37.5354 32.2863 37.576C32.4364 37.7423 35.9554 41.6429 36.8455 42.7737C37.4 42.6844 38.9773 42.207 41.0651 39.6723C43.1311 37.1633 43.0535 35.7241 42.9286 35.228L42.8437 35.3023C39.4777 31.8128 38.6309 31.1097 38.4256 31.0012Z" fill="white"/>
<path d="M20.3638 36.1032C20.2007 36.155 20.0298 36.1903 19.8555 36.2122L19.9134 36.3373C19.9173 36.3454 19.9201 36.3534 19.9224 36.3619C19.9224 36.3619 19.9505 36.4362 20.0602 36.4838C20.1422 36.5191 20.3081 36.5539 20.6056 36.4881C20.4881 36.3673 20.4122 36.2133 20.3689 36.1016C20.3672 36.1021 20.3655 36.1026 20.3638 36.1032Z" fill="white"/>
<path d="M15.1187 25.2237C15.0467 25.3724 14.8353 25.8594 14.9235 26.2871C14.9972 26.6405 15.6084 27.1527 15.9891 27.4317C15.9914 26.81 16.3659 25.7049 16.466 25.4199C16.06 25.1441 15.3222 25.2013 15.1187 25.2237Z" fill="white"/>
<path d="M16.6 23.6317C15.9612 21.5446 15.3207 19.4697 14.7516 17.6241C13.8744 14.781 13.2407 12.7264 13.1474 12.3618C13.1131 12.2282 13.0973 12.1025 13.0973 11.9844C12.9387 12.2672 12.9039 12.5997 12.9944 12.9745L16.0624 23.2864C16.1597 23.342 16.3582 23.4612 16.6 23.6317Z" fill="white"/>
<mask id="mask1_1255_2182" style="mask-type:luminance" maskUnits="userSpaceOnUse" x="12" y="10" width="32" height="33">
<path d="M12.3398 10.3516H43.1457V42.9937H12.3398V10.3516Z" fill="white"/>
</mask>
<g mask="url(#mask1_1255_2182)">
<path d="M12.7145 18.931C12.4755 19.2822 12.3917 19.6661 12.4789 20.0115C12.5593 20.3285 12.7724 20.5899 13.0958 20.7674C13.7115 21.1058 15.1364 21.5565 15.1966 21.5752V21.5747L15.5941 22.9102C15.3383 23.1241 14.501 23.8255 14.0871 24.2072C13.6884 24.575 13.5996 25.3048 13.5822 25.7068C13.576 25.8576 13.6232 26.0094 13.7166 26.134C13.9494 26.4462 14.5634 27.2332 15.2303 27.8031C15.322 27.8812 15.408 27.9485 15.4907 28.0079C15.1572 28.8387 15.0897 29.6535 15.313 30.2036C15.5267 30.7291 16.4432 31.4626 17.3755 31.9016C17.1017 32.147 16.5917 32.6768 16.3847 33.3798C16.1064 34.3277 16.8368 35.2563 17.6843 35.7557C18.2162 36.0695 18.8415 36.2336 19.4465 36.2331C19.4612 36.2331 19.4758 36.232 19.4904 36.2315L19.5933 36.455C19.6124 36.5084 19.6844 36.6672 19.8964 36.7667C20.0117 36.8207 20.1466 36.8479 20.3007 36.8479C20.5425 36.8479 20.8315 36.7816 21.1655 36.649C21.192 36.6426 21.219 36.6346 21.246 36.6239C21.422 36.548 22.4392 36.0417 23.7561 35.3809C24.4467 35.7578 28.8991 38.107 32.084 37.8536C32.558 38.3802 35.7919 41.9739 36.5876 42.9908L36.8642 42.7951C36.8586 42.7882 36.853 42.7807 36.8468 42.7737C35.9567 41.643 32.4377 37.7424 32.2876 37.5761C32.251 37.5355 32.1959 37.5141 32.1391 37.5194C29.3039 37.7931 25.2075 35.7685 24.1194 35.1981C26.7578 33.8722 30.3296 32.0636 30.9464 31.7513C31.0167 31.97 31.0578 32.1876 31.0454 32.3806L31.3895 32.4014C31.4492 31.4888 30.5393 30.2223 30.5005 30.1688C30.4966 30.164 30.4932 30.1592 30.4893 30.1549C28.3829 27.8282 28.3694 24.7221 28.42 23.779C28.4413 23.8111 28.4593 23.8415 28.47 23.8683C28.664 24.3607 29.4096 24.9862 29.9326 24.9862C29.9455 24.9862 29.9585 24.9856 29.9708 24.9846L29.9483 24.6579C29.6199 24.6772 28.9508 24.1538 28.7928 23.7533C28.6483 23.3871 27.9296 22.8354 27.5652 22.5729C27.9358 22.3467 28.2136 21.9858 28.2344 21.3528L27.8897 21.3427C27.8588 22.2895 27.1463 22.4574 26.3911 22.6354C26.3192 22.6525 26.2472 22.6691 26.1775 22.6867C25.4982 22.8557 24.4944 22.7012 23.4232 22.2617C22.5511 21.904 22.4077 21.3299 22.3127 20.9503L22.3082 20.9305C22.3037 20.9139 22.3065 20.9059 22.3132 20.8957C22.3222 20.8818 22.3363 20.8685 22.3532 20.8551C22.6337 21.0235 22.979 21.2096 23.1325 21.2096C23.1415 21.2096 23.15 21.209 23.1578 21.2074C23.2602 21.1898 25.1074 20.6268 25.2153 20.5343C25.2361 20.5167 25.28 20.4659 25.2406 20.375C25.2114 20.3076 25.1012 20.174 24.9719 20.0537C25.2429 19.9623 25.4785 19.8869 25.6039 19.8671C25.7726 19.8404 25.9559 19.7057 26.2095 19.5185C26.5885 19.2395 27.0597 18.892 27.5861 18.8401C28.3924 18.7599 29.7543 19.8714 30.2666 20.29L30.3223 20.3355C30.7288 20.6669 32.3489 21.702 33.4212 22.3868C33.6624 22.5413 33.8755 22.6771 34.0386 22.7824C34.8635 23.3139 37.4659 28.5944 37.5508 29.3765C37.6414 30.2068 38.3549 30.9392 38.3853 30.9697C38.3971 30.9825 38.4112 30.9927 38.4269 31.0012C38.6322 31.1098 39.479 31.8128 42.845 35.3023L42.9299 35.228L43.0992 35.0804C40.5615 32.4501 39.0556 30.9873 38.6215 30.7297C38.5208 30.6222 37.9658 30.002 37.8938 29.3428C37.8101 28.5708 35.2167 23.1454 34.232 22.5114C34.0684 22.4061 33.8553 22.2697 33.6135 22.1152C32.5479 21.4341 30.938 20.4055 30.5466 20.0863L30.4915 20.0414C29.8972 19.556 28.5049 18.4193 27.5506 18.514C27.3471 18.5343 27.1525 18.5899 26.9698 18.6658L24.1497 11.5788C24.0187 11.1458 23.529 10.3492 22.5843 10.3839C21.3995 10.4294 14.0821 10.9741 14.0084 10.98C14.0045 10.98 14.0005 10.9806 13.9972 10.9811C13.9927 10.9816 13.9674 10.9854 13.9286 10.9945C13.6738 11.034 13.1936 11.2468 12.8838 11.6788C12.6122 12.0584 12.5346 12.5288 12.6605 13.0485L14.217 18.2819C13.8577 18.3001 13.0744 18.4017 12.7145 18.931ZM13.0969 11.9771C13.0969 12.0953 13.1126 12.2209 13.1469 12.3545C13.2403 12.7192 13.874 14.7737 14.7512 17.6169C15.3203 19.4619 15.9608 21.5373 16.5995 23.6245C16.3578 23.4539 16.1593 23.3347 16.062 23.2791L12.994 12.9672C12.9035 12.5925 12.9383 12.2599 13.0969 11.9771ZM20.0595 36.4774C19.9498 36.4298 19.9217 36.3555 19.9217 36.3555C19.9195 36.347 19.9166 36.339 19.9127 36.3309L19.8548 36.2058C20.0291 36.1839 20.2 36.1486 20.3631 36.0968C20.3648 36.0962 20.3665 36.0957 20.3682 36.0952C20.4115 36.2069 20.4874 36.3609 20.6049 36.4817C20.3075 36.5475 20.1416 36.5127 20.0595 36.4774ZM20.2546 35.7856C19.5062 36.023 18.5913 35.9048 17.8659 35.4771C17.3154 35.1526 16.4533 34.364 16.7171 33.468C16.9324 32.735 17.5437 32.1929 17.7186 32.0491C17.795 32.0791 17.8715 32.1069 17.9469 32.1309C18.3945 32.2769 18.7853 32.3597 19.1238 32.3806C19.6698 32.4864 21.0463 32.896 21.2527 33.6033C21.5097 34.4811 21.0244 35.5418 20.2546 35.7856ZM19.1811 32.0571C19.1738 32.0561 19.1676 32.055 19.1648 32.0545L19.1643 32.0566C18.8561 32.039 18.4895 31.9614 18.0588 31.8208C17.0775 31.5017 15.8539 30.6254 15.6346 30.0854C15.4176 29.5513 15.561 28.7863 15.7859 28.195C16.0564 28.3409 16.2762 28.3864 16.4612 28.3864C16.6277 28.3864 16.7654 28.3495 16.8875 28.3174C16.9105 28.3115 16.933 28.3057 16.9549 28.3003C17.0815 28.2688 17.2653 28.1618 17.4582 27.9945C17.9317 28.064 19.7828 28.3939 20.4087 29.3642C21.129 30.48 20.3654 31.5968 20.0212 31.8567C19.8199 32.0085 19.541 32.0748 19.1811 32.0571ZM16.8678 27.9827C16.8442 27.9886 16.82 27.995 16.7952 28.0015C16.5028 28.079 16.1716 28.1667 15.4609 27.5593C14.8193 27.0113 14.2238 26.2473 13.9977 25.9448C13.9488 25.8785 13.9235 25.7988 13.9269 25.7202C13.9392 25.4358 14.0028 24.7418 14.3272 24.4425C14.6781 24.1185 15.3613 23.5421 15.6982 23.2599L15.7493 23.4315C15.7617 23.4726 15.7904 23.5074 15.8292 23.5288C15.8477 23.5389 17.6882 24.5553 17.9671 25.794C18.2533 27.0627 17.0747 27.9314 16.8678 27.9827ZM15.083 21.1919C14.6545 21.0508 13.7143 20.7289 13.2684 20.4841C13.0289 20.352 12.872 20.1622 12.814 19.9345C12.7494 19.6779 12.8169 19.3843 13.0041 19.109C13.3049 18.6669 14.0686 18.6123 14.3137 18.6065L15.083 21.1919ZM25.0253 20.4082C24.6913 20.5397 23.2506 20.9914 23.1252 21.0134C23.0476 21.0134 22.726 20.846 22.4212 20.6632C23.5363 20.1874 24.4107 20.0115 24.5625 20.0045C24.653 20.0184 24.937 20.282 25.0253 20.4082ZM25.9986 19.2592C25.826 19.3865 25.6303 19.5308 25.5471 19.5437C25.3582 19.5736 25.0225 19.6875 24.6322 19.8211C24.608 19.8131 24.5844 19.8078 24.5642 19.8078C24.5619 19.8078 24.5597 19.8078 24.5574 19.8078C24.3561 19.8174 23.376 20.02 22.1631 20.5595C22.1339 20.5723 22.1142 20.5969 22.1069 20.6263C22.0726 20.6562 22.0428 20.6878 22.0197 20.7231C21.964 20.8091 21.9477 20.907 21.9725 21.0064L21.9775 21.0262C22.0748 21.4154 22.2559 22.1398 23.2866 22.5627C24.427 23.0305 25.5122 23.1909 26.2646 23.0038C26.3332 22.9867 26.4035 22.9701 26.4744 22.9535C26.7167 22.8963 26.9782 22.8348 27.2234 22.7391C27.4995 22.9311 27.8655 23.2107 28.1326 23.4614L28.0994 23.4577C28.0944 23.4972 27.6282 27.4893 30.2211 30.3613C30.2655 30.4239 30.5995 30.9023 30.8289 31.4396C30.1946 31.761 21.6283 36.0984 21.1104 36.3229C21.0267 36.355 20.976 36.34 20.9417 36.3229C20.8169 36.2625 20.7258 36.0743 20.682 35.9535C21.4343 35.5092 21.8561 34.4426 21.585 33.5156C21.3989 32.8778 20.592 32.4843 19.9599 32.2688C20.06 32.2277 20.1523 32.1764 20.2355 32.1133C20.6583 31.7952 21.5535 30.511 20.7028 29.1926C20.0747 28.2196 18.4642 27.8347 17.7427 27.7074C18.1459 27.2364 18.4856 26.5286 18.3045 25.725C18.1482 25.0337 17.592 24.4243 17.0646 23.9821L17.0674 23.9816C16.3836 21.7442 15.692 19.5025 15.0819 17.5244C14.2395 14.7924 13.5737 12.6342 13.4821 12.277C13.4101 11.9953 13.4332 11.7675 13.5507 11.5997C13.7109 11.3714 14.0056 11.3126 14.0427 11.3061C14.3166 11.2858 21.4371 10.756 22.5983 10.7116C23.5081 10.6747 23.8079 11.6344 23.8202 11.6745C23.8214 11.6793 23.823 11.6841 23.8247 11.6884L26.661 18.8166C26.4108 18.9561 26.1876 19.1202 25.9986 19.2592Z" fill="#30759E"/>
</g>
<path d="M15.0339 25.0377C15.0013 25.0425 14.9732 25.0617 14.958 25.0895C14.9434 25.1163 14.6009 25.7493 14.7207 26.3272C14.841 26.9094 16.0039 27.691 16.0528 27.7237C16.0708 27.736 16.0916 27.7418 16.1124 27.7418C16.1327 27.7418 16.1529 27.736 16.1709 27.7247C16.2063 27.7017 16.2232 27.66 16.2131 27.6205C16.1023 27.1848 16.5161 25.884 16.6848 25.4199C16.6983 25.382 16.6865 25.3398 16.6545 25.3136C16.131 24.8826 15.0783 25.0313 15.0339 25.0377ZM15.9887 27.4339C15.608 27.1548 14.9968 26.6426 14.9231 26.2893C14.8348 25.8616 15.0463 25.3745 15.1182 25.2259C15.3218 25.2034 16.0596 25.1462 16.4655 25.4221C16.3654 25.707 15.9909 26.8121 15.9887 27.4339Z" fill="#30759E"/>
<path d="M20.039 29.9232C20.0064 29.7147 19.9271 29.5703 19.8029 29.4944C19.3839 29.2389 18.0946 29.2266 18.0395 29.2266C18.0097 29.2271 17.9776 29.2399 17.9579 29.264C17.9337 29.2929 17.3675 29.9836 17.3281 30.8C17.3281 30.8075 17.3287 30.8149 17.3298 30.8224C17.4113 31.2378 18.9026 31.6768 19.3581 31.8013C19.3671 31.804 19.3766 31.8051 19.3862 31.8051C19.4166 31.8051 19.4452 31.7928 19.4655 31.7703C19.9041 31.2801 20.1161 30.4193 20.039 29.9232ZM19.3496 31.5939C18.5062 31.3576 17.5997 30.9951 17.5356 30.7957C17.5716 30.152 17.9765 29.5746 18.0906 29.4238C18.4826 29.4303 19.3991 29.4816 19.691 29.6601C19.7607 29.7024 19.8113 29.8061 19.8344 29.9521C19.9007 30.3803 19.718 31.1427 19.3496 31.5939Z" fill="#30759E"/>
<path d="M20.5718 33.4082C20.0887 33.1831 18.3742 33.251 18.3017 33.2542C18.2635 33.2559 18.2297 33.2767 18.2128 33.3088C18.2016 33.3318 17.9255 33.8771 18.0323 34.771C18.0346 34.7881 18.0413 34.8041 18.052 34.818C18.3596 35.2147 19.9605 35.59 20.1416 35.6312C20.15 35.6333 20.1579 35.6339 20.1658 35.6339C20.1961 35.6339 20.2248 35.6216 20.245 35.5991C20.5251 35.2853 20.6201 33.6836 20.6297 33.5018C20.6319 33.4622 20.6094 33.4259 20.5718 33.4082ZM20.1202 35.4238C19.6141 35.3035 18.485 34.9902 18.2348 34.7207C18.1611 34.0551 18.3152 33.5969 18.3759 33.4483C18.8741 33.4312 20.0066 33.4243 20.4194 33.5606C20.3811 34.184 20.2737 35.1442 20.1202 35.4238Z" fill="#30759E"/>
<path d="M24.5593 20.0078C24.4074 20.0148 23.533 20.1907 22.418 20.6665C22.7227 20.8493 23.0444 21.0167 23.122 21.0167C23.2474 20.9947 24.688 20.543 25.022 20.4115C24.9338 20.2853 24.6498 20.0217 24.5593 20.0078Z" fill="white"/>
</svg>
