<svg width="21" height="19" viewBox="0 0 21 19" fill="none" xmlns="http://www.w3.org/2000/svg">
<path id="Vector" d="M2.34706 1.82349L18.3471 17.8235M14.8471 14.5793C13.4945 15.308 11.9657 15.8233 10.3471 15.8233C6.81641 15.8233 3.71341 13.3713 1.93397 11.6023C1.46427 11.1353 1.22945 10.9019 1.07997 10.4436C0.97336 10.1168 0.973327 9.53005 1.07997 9.20323C1.2295 8.74495 1.4648 8.51094 1.93544 8.04315C2.83232 7.1517 4.06518 6.08708 5.51936 5.25024M17.8471 12.4569C18.1801 12.164 18.4851 11.8758 18.7589 11.6038L18.7617 11.6007C19.2304 11.1349 19.4654 10.9014 19.6146 10.4441C19.7212 10.1173 19.721 9.53032 19.6144 9.20349C19.4649 8.74535 19.2298 8.51123 18.7604 8.0446C16.981 6.27557 13.8777 3.82349 10.3471 3.82349C10.0096 3.82349 9.67597 3.84589 9.34706 3.88797M11.67 11.3235C11.3174 11.6347 10.8543 11.8235 10.3471 11.8235C9.24249 11.8235 8.34706 10.9281 8.34706 9.82349C8.34706 9.28398 8.56067 8.79457 8.90794 8.43481" stroke="#979797" stroke-width="2" stroke-linecap="round" strokeLinejoin="round"/>
</svg>
