<svg width="71" height="70" viewBox="0 0 71 70" fill="none" xmlns="http://www.w3.org/2000/svg">
<g clipPath="url(#clip0_1058_9840)">
<rect x="2" y="10" width="64" height="53" rx="7" fill="white"/>
<path d="M7.0625 10.3438H25.7451L22.9844 11.5312H5.96875C3.88792 11.5312 2.1875 13.2317 2.1875 15.3125C2.1875 17.3933 3.88792 19.0938 5.96875 19.0938H65.625V31.2188H44.1953C40.2578 31.2188 37.0781 34.393 37.0781 38.2812V42.6562C37.0781 46.5418 40.2551 49.7188 44.1406 49.7188H65.625V57.9688C65.625 61.302 62.8957 64.0312 59.5625 64.0312H7.0625C3.72927 64.0312 1 61.302 1 57.9688V16.4062C1 13.073 3.72927 10.3438 7.0625 10.3438ZM44.1953 34.4062H70V46.5312H44.1953C42.0652 46.5312 40.3203 44.7864 40.3203 42.6562V38.2812C40.3203 36.1511 42.0652 34.4062 44.1953 34.4062ZM47.4766 36.8516C45.3957 36.8516 43.6953 38.552 43.6953 40.6328C43.6953 42.7136 45.3957 44.4141 47.4766 44.4141C49.5574 44.4141 51.2578 42.7136 51.2578 40.6328C51.2578 38.552 49.5574 36.8516 47.4766 36.8516ZM54.3545 15.7969H21.1201L49.9424 6.13965L54.3545 15.7969ZM59.5078 10.3984C60.8209 10.3984 62.0218 10.8172 63.0098 11.5312H55.6719L55.1494 10.3984H59.5078Z" fill="#03548A" stroke="white"/>
</g>
<defs>
<clipPath id="clip0_1058_9840">
<rect width="70" height="70" fill="white" transform="translate(0.5)"/>
</clipPath>
</defs>
</svg>
