<?xml version="1.0" encoding="UTF-8"?>
<svg id="Layer_2" data-name="Layer 2" xmlns="http://www.w3.org/2000/svg" viewBox="0 0 226.48 74.89">
  <g id="Layer_1-2" data-name="Layer 1">
    <g>
      <g>
        <g>
          <g>
            <path d="M48.02,5.97l-4.69,20.29,9.77-2.47,4.12-17.82h-9.2Zm-5.85,41.31l-3.45-4.48-3.94,3.21,2.62,5.96h9.2l5.82-25.17-10.24,20.48Zm-5.4-19.36l-7.94,2.01,.92,1.21-1.11,.9,1.73,3.94,1.91-1.55,.92,1.2,3.7-7.4h0s-.13-.3-.13-.3Zm-18.85,18.16l1.52-6.58-8.33,6.77c-.02-.89-.15-2.84-1.34-4.72l-.53,2.3-.56,2.43-1.31,5.69h9.2l.21-.91c-1.23-.93-2.47-1.32-3.12-1.49h0s4.28-3.48,4.28-3.48ZM31.3,15.38l-4.1-9.41h-9.2l-6.01,26,11.33-9.2h0s-3.45-4.5-3.45-4.5l11.44-2.89Z"/>
            <path d="M28.82,29.94l.92,1.21-1.11,.9-9.2,7.47-8.33,6.77c-.02-.89-.15-2.84-1.34-4.72-.12-.21-.27-.42-.43-.62-1.58-2.08-3.72-2.78-4.67-3.02,0,0,0,0,0,0l7.31-5.94,11.33-9.2h0s0-.01,0-.01l-3.45-4.49,11.44-2.89,6.47-1.64L31.77,0H13.4L0,57.95H21.15l.25-1.08-1.31,1.07c-.02-.99-.19-3.27-1.77-5.33-.48-.63-1.02-1.14-1.55-1.54-1.23-.93-2.47-1.32-3.12-1.49h0s4.28-3.48,4.28-3.48l12.45-10.11,1.91-1.55,.92,1.2,3.7-7.4h0s.19-.38,.19-.38l-.32,.08-7.94,2.01ZM2.72,46.28l.69-2.97c.33,.09,1.1,.34,1.66,1.08,.56,.73,.62,1.54,.62,1.9H2.72Zm8.98,11.66l.69-2.97c.33,.09,1.1,.34,1.66,1.08,.56,.73,.62,1.54,.62,1.9h-2.97ZM43.43,0l-3.02,13.08,4.65-1.17-7.96,15.94,6.24-1.58,9.77-2.47,.92-.23-1.62,3.23h0s-10.24,20.49-10.24,20.49l-3.45-4.48-3.94,3.21-5.3,4.31,3.35,7.63h18.37L64.58,0h-21.15Z"/>
          </g>
          <g>
            <g>
              <path d="M11.1,46.28l-1.87-2.43-4.56-5.94c.94,.24,3.08,.95,4.67,3.02,.16,.2,.3,.41,.43,.62,1.19,1.89,1.32,3.83,1.34,4.72Z"/>
              <path d="M20.08,57.93h-.01s-4.59-5.96-4.59-5.96l-1.84-2.4c.65,.17,1.89,.56,3.12,1.49,.54,.4,1.07,.9,1.55,1.54,1.58,2.06,1.75,4.34,1.77,5.33Z"/>
            </g>
            <g>
              <path d="M11.1,46.28H5.69c0-.35-.06-1.16-.62-1.9-.57-.74-1.33-.99-1.66-1.08l1.25-5.4h.01s0,0,0,0c.94,.24,3.08,.95,4.67,3.02,.16,.2,.3,.41,.43,.62,1.19,1.89,1.32,3.83,1.34,4.72Z"/>
              <rect x="2.72" y="46.28" width="2.97" height="0"/>
            </g>
            <g>
              <path d="M20.08,57.93h0s-5.41,.01-5.41,.01c0-.35-.06-1.16-.62-1.9-.57-.74-1.33-.99-1.66-1.08l.69-3,.56-2.4h0c.65,.17,1.89,.56,3.12,1.49,.54,.4,1.07,.9,1.55,1.54,1.58,2.06,1.75,4.34,1.77,5.33Z"/>
              <rect x="11.7" y="57.94" width="2.97" height="0"/>
            </g>
          </g>
        </g>
        <line x1="21.32" y1="57.02" x2="29.61" y2="50.29"/>
      </g>
      <g>
        <path d="M81.02,58.18c-4.13,0-7.77-.87-10.93-2.61-3.16-1.74-5.63-4.15-7.39-7.23-1.77-3.08-2.65-6.63-2.65-10.65s.87-7.8,2.61-11.01c1.74-3.21,4.19-5.73,7.35-7.55,3.16-1.82,6.83-2.73,11.01-2.73,3.96,0,7.47,.86,10.53,2.57,3.05,1.72,5.44,4.06,7.15,7.03,1.71,2.97,2.57,6.36,2.57,10.17v1.81c0,.67-.05,1.35-.16,2.05h-33.03v-6.75h21.78c-.16-2.36-1.06-4.25-2.69-5.67-1.63-1.42-3.66-2.13-6.07-2.13-1.82,0-3.5,.4-5.02,1.21-1.53,.8-2.73,2.02-3.62,3.66-.88,1.64-1.33,3.71-1.33,6.23v2.33c0,2.04,.41,3.82,1.25,5.34,.83,1.53,1.98,2.71,3.46,3.54,1.47,.83,3.17,1.25,5.1,1.25s3.46-.41,4.74-1.25c1.29-.83,2.28-1.92,2.97-3.25h11.49c-.75,2.57-2.02,4.89-3.82,6.95-1.8,2.06-3.99,3.7-6.59,4.9-2.6,1.21-5.51,1.81-8.72,1.81Z"/>
        <path d="M118.87,57.21c-2.79,0-5.13-.32-7.03-.96-1.9-.64-3.34-1.89-4.3-3.74-.96-1.85-1.45-4.51-1.45-8V26.75h-6.83v-9.4h6.83V6.42h11.25v10.93h9.8v9.4h-9.8v16.39c0,1.23,.13,2.17,.4,2.81,.27,.64,.76,1.08,1.49,1.33,.72,.24,1.7,.36,2.93,.36h4.74v9.56h-8.04Z"/>
        <path d="M127.87,57.21V17.35h11.25V57.21h-11.25Zm.48-46.21V.55h10.45V11h-10.45Z"/>
        <path d="M172.24,74.89v-23.15c-1.23,1.72-2.88,3.22-4.94,4.5-2.06,1.29-4.73,1.93-8,1.93-3.7,0-7.03-.91-10.01-2.73-2.97-1.82-5.32-4.33-7.03-7.51-1.72-3.19-2.57-6.76-2.57-10.73s.86-7.6,2.57-10.73c1.71-3.13,4.06-5.6,7.03-7.39,2.97-1.79,6.31-2.69,10.01-2.69,2.95,0,5.51,.54,7.68,1.61,2.17,1.07,3.92,2.57,5.26,4.5v-5.14h11.25v57.54h-11.25Zm-10.37-26.52c2.09,0,3.94-.48,5.55-1.45,1.61-.96,2.87-2.29,3.78-3.98,.91-1.69,1.37-3.58,1.37-5.67s-.46-4.04-1.37-5.71c-.91-1.66-2.17-2.97-3.78-3.94-1.61-.96-3.46-1.45-5.55-1.45s-3.87,.48-5.51,1.45c-1.64,.96-2.91,2.26-3.82,3.9-.91,1.63-1.37,3.52-1.37,5.67s.45,4.06,1.37,5.75c.91,1.69,2.18,3.01,3.82,3.98,1.63,.96,3.47,1.45,5.51,1.45Z"/>
        <path d="M199.08,58.18c-2.95,0-5.56-.54-7.84-1.61-2.28-1.07-4.06-2.52-5.34-4.34-1.29-1.82-1.93-3.83-1.93-6.03,0-4.13,1.54-7.33,4.62-9.6,3.08-2.28,7.35-3.42,12.82-3.42,2.41,0,4.46,.16,6.15,.48,1.69,.32,3.04,.68,4.06,1.08,1.02,.4,1.71,.68,2.09,.84l-.08,7.23c-.48-.21-1.3-.51-2.45-.88-1.15-.37-2.48-.72-3.98-1.05-1.5-.32-3.03-.48-4.58-.48-2.3,0-4.1,.4-5.38,1.21-1.29,.8-1.93,1.93-1.93,3.38s.62,2.52,1.85,3.38c1.23,.86,2.73,1.29,4.5,1.29,2.3,0,4.16-.62,5.59-1.85,1.42-1.23,2.45-2.88,3.09-4.94,.64-2.06,.96-4.27,.96-6.63l4.42,8.68c-.48,2.25-1.43,4.38-2.85,6.39-1.42,2.01-3.28,3.66-5.59,4.94-2.3,1.29-5.04,1.93-8.2,1.93Zm12.22-8.04v-17.44c0-2.62-.76-4.53-2.29-5.71-1.53-1.18-3.47-1.77-5.83-1.77-1.82,0-3.4,.32-4.74,.96-1.34,.64-2.2,1.82-2.57,3.54h-10.53c.32-2.84,1.27-5.25,2.85-7.23,1.58-1.98,3.67-3.5,6.27-4.54,2.6-1.04,5.51-1.57,8.72-1.57,6,0,10.73,1.41,14.19,4.22,3.46,2.81,5.18,6.85,5.18,12.1v17.6l-11.25-.16Zm12.7,7.07c-2.73,0-5.05-.33-6.95-1-1.9-.67-3.34-1.9-4.3-3.7-.96-1.79-1.45-4.38-1.45-7.76l11.25-3.78c0,2.04,.12,3.55,.36,4.54,.24,.99,.63,1.62,1.17,1.89,.53,.27,1.23,.4,2.09,.4h.32v9.4h-2.49Z"/>
      </g>
    </g>
  </g>
</svg>