<?xml version="1.0" encoding="UTF-8"?>
<svg id="Layer_2" data-name="Layer 2" xmlns="http://www.w3.org/2000/svg" xmlns:xlink="http://www.w3.org/1999/xlink" viewBox="0 0 179.95 179.95">
  <defs>
    <style>
      .cls-1 {
        fill: url(#linear-gradient);
      }
    </style>
    <linearGradient id="linear-gradient" x1="39.76" y1="140.19" x2="140.19" y2="39.76" gradientUnits="userSpaceOnUse">
      <stop offset=".61" stop-color="#2cce20"/>
      <stop offset="1" stop-color="#dfffaa"/>
    </linearGradient>
  </defs>
  <g id="Layer_1-2" data-name="Layer 1">
    <circle cx="89.97" cy="89.97" r="89.97"/>
    <path class="cls-1" d="M142.91,42.47l-21.96,95h-30.11l-5.49-12.51,8.7-7.06,6.46-5.25,5.66,7.35,16.79-33.58h0s2.65-5.31,2.65-5.31l-1.52,.38-16.01,4.05-10.24,2.59,13.06-26.14-7.62,1.92,4.96-21.44h34.67Zm-45.59,45.79l.53-.14-.32,.62h0s-6.06,12.14-6.06,12.14l-1.51-1.97-3.13,2.55-20.41,16.57-7.02,5.7h0s0,0,0,0c1.07,.27,3.1,.92,5.12,2.44,.88,.66,1.75,1.48,2.55,2.52,2.59,3.37,2.87,7.11,2.9,8.74l2.15-1.75-.41,1.77H37.04L59.01,42.47h30.12l9.83,22.54-10.6,2.68-18.75,4.74,5.66,7.36h0s0,.02,0,.02l-18.57,15.08-11.99,9.73s0,0,0,0c1.54,.39,5.05,1.55,7.65,4.96,.26,.33,.49,.67,.7,1.01,1.95,3.09,2.17,6.29,2.2,7.74l13.66-11.1,15.08-12.25,1.82-1.47-1.52-1.98,13.02-3.29Zm-50.94,30.08c0-.58-.1-1.91-1.02-3.11-.93-1.21-2.18-1.62-2.73-1.76l-1.12,4.87h4.87Zm14.73,19.12c0-.58-.1-1.91-1.02-3.11-.93-1.21-2.18-1.62-2.73-1.76l-1.12,4.87h4.87Z"/>
  </g>
</svg>